G04 #@! TF.GenerationSoftware,KiCad,Pcbnew,(5.1.2)-2*
G04 #@! TF.CreationDate,2021-03-10T15:00:10+01:00*
G04 #@! TF.ProjectId,projet shield capteur,70726f6a-6574-4207-9368-69656c642063,rev?*
G04 #@! TF.SameCoordinates,Original*
G04 #@! TF.FileFunction,Copper,L2,Bot*
G04 #@! TF.FilePolarity,Positive*
%FSLAX46Y46*%
G04 Gerber Fmt 4.6, Leading zero omitted, Abs format (unit mm)*
G04 Created by KiCad (PCBNEW (5.1.2)-2) date 2021-03-10 15:00:10*
%MOMM*%
%LPD*%
G04 APERTURE LIST*
%ADD10C,0.300000*%
%ADD11O,2.500000X2.000000*%
%ADD12C,2.000000*%
%ADD13O,1.727200X2.032000*%
%ADD14C,4.064000*%
%ADD15R,2.000000X2.000000*%
%ADD16O,2.000000X2.500000*%
%ADD17C,0.500000*%
%ADD18C,0.254000*%
G04 APERTURE END LIST*
D10*
X173322571Y-86681571D02*
X172465428Y-86681571D01*
X172894000Y-88181571D02*
X172894000Y-86681571D01*
X171965428Y-88181571D02*
X171965428Y-87181571D01*
X171965428Y-87467285D02*
X171894000Y-87324428D01*
X171822571Y-87253000D01*
X171679714Y-87181571D01*
X171536857Y-87181571D01*
X170465428Y-88110142D02*
X170608285Y-88181571D01*
X170894000Y-88181571D01*
X171036857Y-88110142D01*
X171108285Y-87967285D01*
X171108285Y-87395857D01*
X171036857Y-87253000D01*
X170894000Y-87181571D01*
X170608285Y-87181571D01*
X170465428Y-87253000D01*
X170394000Y-87395857D01*
X170394000Y-87538714D01*
X171108285Y-87681571D01*
X169751142Y-88181571D02*
X169751142Y-86681571D01*
X169608285Y-87610142D02*
X169179714Y-88181571D01*
X169179714Y-87181571D02*
X169751142Y-87753000D01*
X167465428Y-86610142D02*
X168751142Y-88538714D01*
X166179714Y-86753000D02*
X166322571Y-86681571D01*
X166536857Y-86681571D01*
X166751142Y-86753000D01*
X166894000Y-86895857D01*
X166965428Y-87038714D01*
X167036857Y-87324428D01*
X167036857Y-87538714D01*
X166965428Y-87824428D01*
X166894000Y-87967285D01*
X166751142Y-88110142D01*
X166536857Y-88181571D01*
X166394000Y-88181571D01*
X166179714Y-88110142D01*
X166108285Y-88038714D01*
X166108285Y-87538714D01*
X166394000Y-87538714D01*
X165251142Y-88181571D02*
X165394000Y-88110142D01*
X165465428Y-87967285D01*
X165465428Y-86681571D01*
X164465428Y-88181571D02*
X164608285Y-88110142D01*
X164679714Y-88038714D01*
X164751142Y-87895857D01*
X164751142Y-87467285D01*
X164679714Y-87324428D01*
X164608285Y-87253000D01*
X164465428Y-87181571D01*
X164251142Y-87181571D01*
X164108285Y-87253000D01*
X164036857Y-87324428D01*
X163965428Y-87467285D01*
X163965428Y-87895857D01*
X164036857Y-88038714D01*
X164108285Y-88110142D01*
X164251142Y-88181571D01*
X164465428Y-88181571D01*
X162679714Y-87181571D02*
X162679714Y-88181571D01*
X163322571Y-87181571D02*
X163322571Y-87967285D01*
X163251142Y-88110142D01*
X163108285Y-88181571D01*
X162894000Y-88181571D01*
X162751142Y-88110142D01*
X162679714Y-88038714D01*
D11*
X171958000Y-112649000D03*
X171958000Y-110109000D03*
X171958000Y-107569000D03*
X171958000Y-105029000D03*
X171958000Y-102489000D03*
X171958000Y-99949000D03*
D12*
X155956000Y-112141000D03*
X166116000Y-112141000D03*
X141224000Y-96901000D03*
X151384000Y-96901000D03*
X131572000Y-111887000D03*
X124072000Y-111887000D03*
D13*
X138938000Y-123825000D03*
X141478000Y-123825000D03*
X144018000Y-123825000D03*
X146558000Y-123825000D03*
X149098000Y-123825000D03*
X151638000Y-123825000D03*
X154178000Y-123825000D03*
X156718000Y-123825000D03*
X161798000Y-123825000D03*
X164338000Y-123825000D03*
X166878000Y-123825000D03*
X169418000Y-123825000D03*
X171958000Y-123825000D03*
X174498000Y-123825000D03*
X129794000Y-75565000D03*
X132334000Y-75565000D03*
X134874000Y-75565000D03*
X137414000Y-75565000D03*
X139954000Y-75565000D03*
X142494000Y-75565000D03*
X145034000Y-75565000D03*
X147574000Y-75565000D03*
X150114000Y-75565000D03*
X152654000Y-75565000D03*
X156718000Y-75565000D03*
X159258000Y-75565000D03*
X161798000Y-75565000D03*
X164338000Y-75565000D03*
X166878000Y-75565000D03*
X169418000Y-75565000D03*
X171958000Y-75565000D03*
X174498000Y-75565000D03*
D14*
X124968000Y-123825000D03*
X177038000Y-118745000D03*
X126238000Y-75565000D03*
X177038000Y-90805000D03*
D12*
X164338000Y-100323000D03*
X164338000Y-107823000D03*
X156718000Y-93973000D03*
X156718000Y-101473000D03*
X131826000Y-115951000D03*
X124326000Y-115951000D03*
X124968000Y-89281000D03*
X135128000Y-89281000D03*
X132080000Y-105029000D03*
X121920000Y-105029000D03*
X123444000Y-101473000D03*
X133604000Y-101473000D03*
X134874000Y-93599000D03*
X124714000Y-93599000D03*
X149810000Y-103251000D03*
D15*
X142290000Y-103251000D03*
D12*
X149810000Y-105791000D03*
X142290000Y-105791000D03*
X149810000Y-108331000D03*
X142290000Y-108331000D03*
X149810000Y-110871000D03*
X142290000Y-110871000D03*
D16*
X131318000Y-84201000D03*
X133858000Y-84201000D03*
X136398000Y-84201000D03*
X138938000Y-84201000D03*
D11*
X155448000Y-79883000D03*
X155448000Y-82423000D03*
X155448000Y-84963000D03*
X155448000Y-87503000D03*
X155448000Y-90043000D03*
D17*
X152400000Y-105791000D02*
X149810000Y-105791000D01*
X129286000Y-84201000D02*
X131318000Y-84201000D01*
X157517999Y-102272999D02*
X162597999Y-102272999D01*
X156718000Y-101473000D02*
X157517999Y-102272999D01*
X153670000Y-104521000D02*
X152400000Y-105791000D01*
X156718000Y-101473000D02*
X153670000Y-104521000D01*
X162814000Y-102489000D02*
X171958000Y-102489000D01*
X162597999Y-102272999D02*
X162814000Y-102489000D01*
X173458000Y-102489000D02*
X174498000Y-101449000D01*
X171958000Y-102489000D02*
X173458000Y-102489000D01*
X174498000Y-101449000D02*
X174498000Y-98425000D01*
X174498000Y-98425000D02*
X167394581Y-91321581D01*
X149627875Y-123825000D02*
X149098000Y-123825000D01*
X153670000Y-105283000D02*
X153670000Y-104521000D01*
X149098000Y-125341000D02*
X149360000Y-125603000D01*
X149098000Y-123825000D02*
X149098000Y-125341000D01*
X149360000Y-125603000D02*
X158496000Y-125603000D01*
X158496000Y-125603000D02*
X159258000Y-124841000D01*
X159258000Y-124841000D02*
X159258000Y-110871000D01*
X159258000Y-110871000D02*
X153670000Y-105283000D01*
X155548000Y-87503000D02*
X155448000Y-87503000D01*
X159366581Y-91321581D02*
X155548000Y-87503000D01*
X167394581Y-91321581D02*
X159366581Y-91321581D01*
X131318000Y-84201000D02*
X131318000Y-86741000D01*
X131318000Y-86741000D02*
X131953000Y-87376000D01*
X136271000Y-87376000D02*
X138049000Y-89154000D01*
X155348000Y-87503000D02*
X155448000Y-87503000D01*
X138049000Y-89154000D02*
X153697000Y-89154000D01*
X131953000Y-87376000D02*
X136271000Y-87376000D01*
X153697000Y-89154000D02*
X155348000Y-87503000D01*
X124968000Y-88519000D02*
X125222000Y-88265000D01*
X124968000Y-89281000D02*
X124968000Y-88519000D01*
X124714000Y-88773000D02*
X125222000Y-88265000D01*
X125222000Y-88265000D02*
X129286000Y-84201000D01*
X133858000Y-84201000D02*
X133858000Y-82701000D01*
X137414000Y-79145000D02*
X137414000Y-75565000D01*
X133858000Y-82701000D02*
X137414000Y-79145000D01*
X163068000Y-100323000D02*
X156718000Y-93973000D01*
X164338000Y-100323000D02*
X163068000Y-100323000D01*
X141782000Y-110363000D02*
X142290000Y-110871000D01*
X133858000Y-84101000D02*
X131418000Y-81661000D01*
X133858000Y-84201000D02*
X133858000Y-84101000D01*
X131418000Y-81661000D02*
X124968000Y-81661000D01*
X124968000Y-81661000D02*
X122174000Y-84455000D01*
X122174000Y-84455000D02*
X122174000Y-94615000D01*
X171584000Y-100323000D02*
X171958000Y-99949000D01*
X164338000Y-100323000D02*
X171584000Y-100323000D01*
X133858000Y-84201000D02*
X133858000Y-84301000D01*
X122174000Y-94615000D02*
X123952000Y-96393000D01*
X130810000Y-103759000D02*
X132080000Y-105029000D01*
X130810000Y-101219000D02*
X130810000Y-103759000D01*
X130810000Y-98171000D02*
X130810000Y-101219000D01*
X129032000Y-96393000D02*
X130810000Y-98171000D01*
X154178000Y-123825000D02*
X151638000Y-123825000D01*
X151638000Y-123825000D02*
X151638000Y-123977400D01*
X125322001Y-113137001D02*
X125710001Y-113137001D01*
X124072000Y-111887000D02*
X125322001Y-113137001D01*
X125710001Y-113137001D02*
X125984000Y-113411000D01*
X139750000Y-113411000D02*
X142290000Y-110871000D01*
X125984000Y-113411000D02*
X139750000Y-113411000D01*
X151384000Y-96901000D02*
X150252630Y-96901000D01*
X145288000Y-96901000D02*
X139700000Y-91313000D01*
X133858000Y-91313000D02*
X128778000Y-96393000D01*
X139700000Y-91313000D02*
X133858000Y-91313000D01*
X123952000Y-96393000D02*
X128778000Y-96393000D01*
X128778000Y-96393000D02*
X129032000Y-96393000D01*
X147458630Y-97270370D02*
X147828000Y-96901000D01*
X147458630Y-107116583D02*
X147458630Y-97270370D01*
X143704213Y-110871000D02*
X147458630Y-107116583D01*
X142290000Y-110871000D02*
X143704213Y-110871000D01*
X147828000Y-96901000D02*
X145288000Y-96901000D01*
X151638000Y-120777000D02*
X151638000Y-123825000D01*
X123952000Y-96393000D02*
X123952000Y-96901000D01*
X123952000Y-96901000D02*
X118364000Y-102489000D01*
X118364000Y-102489000D02*
X118364000Y-114427000D01*
X118364000Y-114427000D02*
X123444000Y-119507000D01*
X123444000Y-119507000D02*
X150368000Y-119507000D01*
X150368000Y-119507000D02*
X151638000Y-120777000D01*
X148590000Y-96901000D02*
X155448000Y-90043000D01*
X148590000Y-96901000D02*
X147828000Y-96901000D01*
X151384000Y-96901000D02*
X148590000Y-96901000D01*
X156718000Y-91313000D02*
X155448000Y-90043000D01*
X156718000Y-93973000D02*
X156718000Y-91313000D01*
X144018000Y-108331000D02*
X142290000Y-108331000D01*
X144399000Y-107950000D02*
X144018000Y-108331000D01*
X141224000Y-96901000D02*
X141224000Y-99949000D01*
X141224000Y-99949000D02*
X141732000Y-100457000D01*
X141732000Y-100457000D02*
X143764000Y-100457000D01*
X144399000Y-101092000D02*
X144399000Y-107950000D01*
X143764000Y-100457000D02*
X144399000Y-101092000D01*
X137922000Y-93599000D02*
X141224000Y-96901000D01*
X134874000Y-93599000D02*
X137922000Y-93599000D01*
X141274000Y-107315000D02*
X142290000Y-108331000D01*
X131572000Y-111887000D02*
X136144000Y-107315000D01*
X136144000Y-107315000D02*
X141274000Y-107315000D01*
X161798000Y-120269000D02*
X161798000Y-120777000D01*
X161798000Y-123825000D02*
X161798000Y-120777000D01*
X161798000Y-120015000D02*
X161798000Y-120777000D01*
X166116000Y-109601000D02*
X166116000Y-112141000D01*
X164338000Y-107823000D02*
X166116000Y-109601000D01*
X166116000Y-115697000D02*
X161798000Y-120015000D01*
X166116000Y-112141000D02*
X166116000Y-115697000D01*
X149984331Y-108505331D02*
X149810000Y-108331000D01*
X149810000Y-108331000D02*
X148359999Y-109781001D01*
X145796000Y-114681000D02*
X147647999Y-112829001D01*
X148359999Y-109831001D02*
X147647999Y-110543001D01*
X148359999Y-109781001D02*
X148359999Y-109831001D01*
X147647999Y-112829001D02*
X147647999Y-110543001D01*
X152146000Y-108331000D02*
X155956000Y-112141000D01*
X149810000Y-108331000D02*
X152146000Y-108331000D01*
X133096000Y-114681000D02*
X145796000Y-114681000D01*
X133096000Y-114681000D02*
X131826000Y-115951000D01*
X120396000Y-114681000D02*
X123698000Y-117983000D01*
X131826000Y-115951000D02*
X129794000Y-117983000D01*
X129794000Y-117983000D02*
X123698000Y-117983000D01*
X120396000Y-103389630D02*
X122312630Y-101473000D01*
X122312630Y-101473000D02*
X123444000Y-101473000D01*
X120396000Y-103389630D02*
X120396000Y-114681000D01*
X134874000Y-106299000D02*
X141782000Y-106299000D01*
X141782000Y-106299000D02*
X142290000Y-105791000D01*
X134366000Y-105791000D02*
X134874000Y-106299000D01*
X133604000Y-105029000D02*
X134366000Y-105791000D01*
X133604000Y-101473000D02*
X133604000Y-105029000D01*
X121920000Y-113545000D02*
X124326000Y-115951000D01*
X121920000Y-105029000D02*
X122719999Y-105828999D01*
X121920000Y-105029000D02*
X121920000Y-113545000D01*
X133350000Y-107823000D02*
X134874000Y-106299000D01*
X128778000Y-107823000D02*
X133350000Y-107823000D01*
X126783999Y-105828999D02*
X128778000Y-107823000D01*
X122719999Y-105828999D02*
X126783999Y-105828999D01*
X171958000Y-118745000D02*
X171958000Y-123825000D01*
X171958000Y-115697000D02*
X171958000Y-118745000D01*
X169418000Y-113157000D02*
X171958000Y-115697000D01*
X169418000Y-108609000D02*
X169418000Y-113157000D01*
X170458000Y-107569000D02*
X169418000Y-108609000D01*
X171958000Y-107569000D02*
X170458000Y-107569000D01*
X172058000Y-105029000D02*
X171958000Y-105029000D01*
X174498000Y-121539000D02*
X174498000Y-123825000D01*
X171958000Y-105029000D02*
X173458000Y-105029000D01*
X174752000Y-106323000D02*
X174752000Y-113665000D01*
X174752000Y-113665000D02*
X172974000Y-115443000D01*
X172974000Y-115443000D02*
X172974000Y-120015000D01*
X173458000Y-105029000D02*
X174752000Y-106323000D01*
X172974000Y-120015000D02*
X174498000Y-121539000D01*
X145034000Y-79505000D02*
X145034000Y-78867000D01*
X140338000Y-84201000D02*
X145034000Y-79505000D01*
X138938000Y-84201000D02*
X140338000Y-84201000D01*
X145034000Y-78867000D02*
X145034000Y-75565000D01*
X136398000Y-84201000D02*
X136928798Y-84201000D01*
X147574000Y-77343000D02*
X147574000Y-75565000D01*
X136398000Y-84201000D02*
X136398000Y-84301000D01*
X136398000Y-84301000D02*
X138076000Y-85979000D01*
X140462000Y-85979000D02*
X147574000Y-78867000D01*
X147574000Y-78867000D02*
X147574000Y-75565000D01*
X138076000Y-85979000D02*
X140462000Y-85979000D01*
X166878000Y-75717400D02*
X166878000Y-75565000D01*
X156948000Y-79883000D02*
X155448000Y-79883000D01*
X164076000Y-79883000D02*
X156948000Y-79883000D01*
X166878000Y-77081000D02*
X164076000Y-79883000D01*
X166878000Y-75565000D02*
X166878000Y-77081000D01*
X169418000Y-75717400D02*
X169418000Y-75565000D01*
X164338000Y-75717400D02*
X164338000Y-75565000D01*
X163322000Y-78867000D02*
X164338000Y-77851000D01*
X158750000Y-78867000D02*
X163322000Y-78867000D01*
X153948000Y-82423000D02*
X152654000Y-81129000D01*
X155448000Y-82423000D02*
X153948000Y-82423000D01*
X152654000Y-81129000D02*
X152654000Y-79121000D01*
X164338000Y-77851000D02*
X164338000Y-75565000D01*
X152654000Y-79121000D02*
X153670000Y-78105000D01*
X153670000Y-78105000D02*
X157988000Y-78105000D01*
X157988000Y-78105000D02*
X158750000Y-78867000D01*
X169418000Y-75565000D02*
X169418000Y-77081000D01*
X157734000Y-84963000D02*
X157734000Y-82423000D01*
X157734000Y-84963000D02*
X155448000Y-84963000D01*
X159516000Y-80641000D02*
X165858000Y-80641000D01*
X157734000Y-82423000D02*
X159516000Y-80641000D01*
X169418000Y-77081000D02*
X165858000Y-80641000D01*
X124714000Y-93599000D02*
X125513999Y-92799001D01*
X129032000Y-89281000D02*
X129794000Y-89281000D01*
X124714000Y-93599000D02*
X129032000Y-89281000D01*
X129286000Y-89281000D02*
X129794000Y-89281000D01*
X129794000Y-89281000D02*
X135128000Y-89281000D01*
D18*
G36*
X124166406Y-73864887D02*
G01*
X123874536Y-74301702D01*
X123673492Y-74787065D01*
X123571000Y-75302323D01*
X123571000Y-75827677D01*
X123673492Y-76342935D01*
X123874536Y-76828298D01*
X124166406Y-77265113D01*
X124537887Y-77636594D01*
X124974702Y-77928464D01*
X125460065Y-78129508D01*
X125975323Y-78232000D01*
X126500677Y-78232000D01*
X127015935Y-78129508D01*
X127501298Y-77928464D01*
X127938113Y-77636594D01*
X128309594Y-77265113D01*
X128601464Y-76828298D01*
X128657001Y-76694219D01*
X128729203Y-76782197D01*
X128957395Y-76969469D01*
X129217737Y-77108625D01*
X129500224Y-77194316D01*
X129794000Y-77223251D01*
X130087777Y-77194316D01*
X130370264Y-77108625D01*
X130630606Y-76969469D01*
X130858797Y-76782197D01*
X131046069Y-76554006D01*
X131064000Y-76520459D01*
X131081931Y-76554006D01*
X131269203Y-76782197D01*
X131497395Y-76969469D01*
X131757737Y-77108625D01*
X132040224Y-77194316D01*
X132334000Y-77223251D01*
X132627777Y-77194316D01*
X132910264Y-77108625D01*
X133170606Y-76969469D01*
X133398797Y-76782197D01*
X133586069Y-76554006D01*
X133604000Y-76520459D01*
X133621931Y-76554006D01*
X133809203Y-76782197D01*
X134037395Y-76969469D01*
X134297737Y-77108625D01*
X134580224Y-77194316D01*
X134874000Y-77223251D01*
X135167777Y-77194316D01*
X135450264Y-77108625D01*
X135710606Y-76969469D01*
X135938797Y-76782197D01*
X136126069Y-76554006D01*
X136147424Y-76514053D01*
X136295514Y-76716729D01*
X136511965Y-76915733D01*
X136763081Y-77068686D01*
X137039211Y-77169709D01*
X137054974Y-77172358D01*
X137287000Y-77051217D01*
X137287000Y-75692000D01*
X137267000Y-75692000D01*
X137267000Y-75438000D01*
X137287000Y-75438000D01*
X137287000Y-74078783D01*
X137054974Y-73957642D01*
X137039211Y-73960291D01*
X136763081Y-74061314D01*
X136511965Y-74214267D01*
X136295514Y-74413271D01*
X136147424Y-74615947D01*
X136126069Y-74575994D01*
X135938797Y-74347803D01*
X135710605Y-74160531D01*
X135450263Y-74021375D01*
X135167776Y-73935684D01*
X134874000Y-73906749D01*
X134580223Y-73935684D01*
X134297736Y-74021375D01*
X134037394Y-74160531D01*
X133809203Y-74347803D01*
X133621931Y-74575995D01*
X133604000Y-74609541D01*
X133586069Y-74575994D01*
X133398797Y-74347803D01*
X133170605Y-74160531D01*
X132910263Y-74021375D01*
X132627776Y-73935684D01*
X132334000Y-73906749D01*
X132040223Y-73935684D01*
X131757736Y-74021375D01*
X131497394Y-74160531D01*
X131269203Y-74347803D01*
X131081931Y-74575995D01*
X131064000Y-74609541D01*
X131046069Y-74575994D01*
X130858797Y-74347803D01*
X130630605Y-74160531D01*
X130370263Y-74021375D01*
X130087776Y-73935684D01*
X129794000Y-73906749D01*
X129500223Y-73935684D01*
X129217736Y-74021375D01*
X128957394Y-74160531D01*
X128729203Y-74347803D01*
X128657001Y-74435781D01*
X128601464Y-74301702D01*
X128309594Y-73864887D01*
X128179707Y-73735000D01*
X175219909Y-73735000D01*
X176328001Y-74843093D01*
X176328000Y-85944125D01*
X176324565Y-85979000D01*
X176328000Y-86013875D01*
X176328000Y-86013876D01*
X176338273Y-86118183D01*
X176378872Y-86252019D01*
X176444800Y-86375362D01*
X176533525Y-86483474D01*
X176560617Y-86505708D01*
X178868001Y-88813093D01*
X178868001Y-88863294D01*
X178738113Y-88733406D01*
X178301298Y-88441536D01*
X177815935Y-88240492D01*
X177300677Y-88138000D01*
X176775323Y-88138000D01*
X176260065Y-88240492D01*
X175774702Y-88441536D01*
X175337887Y-88733406D01*
X174966406Y-89104887D01*
X174674536Y-89541702D01*
X174473492Y-90027065D01*
X174371000Y-90542323D01*
X174371000Y-91067677D01*
X174473492Y-91582935D01*
X174674536Y-92068298D01*
X174966406Y-92505113D01*
X175337887Y-92876594D01*
X175774702Y-93168464D01*
X176260065Y-93369508D01*
X176775323Y-93472000D01*
X177300677Y-93472000D01*
X177815935Y-93369508D01*
X178301298Y-93168464D01*
X178738113Y-92876594D01*
X178868001Y-92746706D01*
X178868000Y-116803293D01*
X178738113Y-116673406D01*
X178301298Y-116381536D01*
X177815935Y-116180492D01*
X177300677Y-116078000D01*
X176775323Y-116078000D01*
X176260065Y-116180492D01*
X175774702Y-116381536D01*
X175337887Y-116673406D01*
X174966406Y-117044887D01*
X174674536Y-117481702D01*
X174473492Y-117967065D01*
X174371000Y-118482323D01*
X174371000Y-119007677D01*
X174473492Y-119522935D01*
X174674536Y-120008298D01*
X174966406Y-120445113D01*
X175337887Y-120816594D01*
X175774702Y-121108464D01*
X176260065Y-121309508D01*
X176775323Y-121412000D01*
X177300677Y-121412000D01*
X177815935Y-121309508D01*
X178301298Y-121108464D01*
X178738113Y-120816594D01*
X178868000Y-120686707D01*
X178868000Y-120990908D01*
X176560617Y-123298292D01*
X176533526Y-123320525D01*
X176511293Y-123347616D01*
X176444801Y-123428637D01*
X176378872Y-123551981D01*
X176338274Y-123685816D01*
X176324565Y-123825000D01*
X176328001Y-123859885D01*
X176328000Y-125655000D01*
X159695579Y-125655000D01*
X159853050Y-125497529D01*
X159886817Y-125469817D01*
X159919897Y-125429510D01*
X159997411Y-125335059D01*
X160079588Y-125181314D01*
X160079589Y-125181313D01*
X160130195Y-125014490D01*
X160143000Y-124884477D01*
X160143000Y-124884469D01*
X160147281Y-124841000D01*
X160143000Y-124797531D01*
X160143000Y-110914465D01*
X160147281Y-110870999D01*
X160143000Y-110827533D01*
X160143000Y-110827523D01*
X160130195Y-110697510D01*
X160079589Y-110530687D01*
X159997411Y-110376941D01*
X159886817Y-110242183D01*
X159853049Y-110214470D01*
X154555000Y-104916422D01*
X154555000Y-104887578D01*
X156371475Y-103071104D01*
X156556967Y-103108000D01*
X156879033Y-103108000D01*
X157114975Y-103061068D01*
X157177686Y-103094588D01*
X157344509Y-103145194D01*
X157474522Y-103157999D01*
X157474532Y-103157999D01*
X157517998Y-103162280D01*
X157561464Y-103157999D01*
X162234144Y-103157999D01*
X162319941Y-103228411D01*
X162473687Y-103310589D01*
X162640510Y-103361195D01*
X162770523Y-103374000D01*
X162770531Y-103374000D01*
X162814000Y-103378281D01*
X162857469Y-103374000D01*
X170327135Y-103374000D01*
X170341969Y-103401752D01*
X170546286Y-103650714D01*
X170678233Y-103759000D01*
X170546286Y-103867286D01*
X170341969Y-104116248D01*
X170190148Y-104400285D01*
X170096657Y-104708484D01*
X170065089Y-105029000D01*
X170096657Y-105349516D01*
X170190148Y-105657715D01*
X170341969Y-105941752D01*
X170546286Y-106190714D01*
X170678233Y-106299000D01*
X170546286Y-106407286D01*
X170341969Y-106656248D01*
X170322279Y-106693085D01*
X170284510Y-106696805D01*
X170117687Y-106747411D01*
X169963941Y-106829589D01*
X169963939Y-106829590D01*
X169963940Y-106829590D01*
X169862953Y-106912468D01*
X169862951Y-106912470D01*
X169829183Y-106940183D01*
X169801470Y-106973951D01*
X168822956Y-107952466D01*
X168789183Y-107980183D01*
X168678589Y-108114942D01*
X168596411Y-108268688D01*
X168545805Y-108435511D01*
X168533000Y-108565524D01*
X168533000Y-108565531D01*
X168528719Y-108609000D01*
X168533000Y-108652469D01*
X168533001Y-113113521D01*
X168528719Y-113157000D01*
X168545805Y-113330490D01*
X168596412Y-113497313D01*
X168678590Y-113651059D01*
X168761468Y-113752046D01*
X168761471Y-113752049D01*
X168789184Y-113785817D01*
X168822951Y-113813529D01*
X171073000Y-116063579D01*
X171073001Y-118701514D01*
X171073000Y-118701524D01*
X171073001Y-122460246D01*
X170893203Y-122607803D01*
X170705931Y-122835995D01*
X170688000Y-122869541D01*
X170670069Y-122835994D01*
X170482797Y-122607803D01*
X170254605Y-122420531D01*
X169994263Y-122281375D01*
X169711776Y-122195684D01*
X169418000Y-122166749D01*
X169124223Y-122195684D01*
X168841736Y-122281375D01*
X168581394Y-122420531D01*
X168353203Y-122607803D01*
X168165931Y-122835995D01*
X168148000Y-122869541D01*
X168130069Y-122835994D01*
X167942797Y-122607803D01*
X167714605Y-122420531D01*
X167454263Y-122281375D01*
X167171776Y-122195684D01*
X166878000Y-122166749D01*
X166584223Y-122195684D01*
X166301736Y-122281375D01*
X166041394Y-122420531D01*
X165813203Y-122607803D01*
X165625931Y-122835995D01*
X165608000Y-122869541D01*
X165590069Y-122835994D01*
X165402797Y-122607803D01*
X165174605Y-122420531D01*
X164914263Y-122281375D01*
X164631776Y-122195684D01*
X164338000Y-122166749D01*
X164044223Y-122195684D01*
X163761736Y-122281375D01*
X163501394Y-122420531D01*
X163273203Y-122607803D01*
X163085931Y-122835995D01*
X163068000Y-122869541D01*
X163050069Y-122835994D01*
X162862797Y-122607803D01*
X162683000Y-122460248D01*
X162683000Y-120381578D01*
X166711049Y-116353530D01*
X166744817Y-116325817D01*
X166773134Y-116291314D01*
X166855410Y-116191060D01*
X166855411Y-116191059D01*
X166937589Y-116037313D01*
X166988195Y-115870490D01*
X167001000Y-115740477D01*
X167001000Y-115740467D01*
X167005281Y-115697001D01*
X167001000Y-115653535D01*
X167001000Y-113516059D01*
X167158252Y-113410987D01*
X167385987Y-113183252D01*
X167564918Y-112915463D01*
X167688168Y-112617912D01*
X167751000Y-112302033D01*
X167751000Y-111979967D01*
X167688168Y-111664088D01*
X167564918Y-111366537D01*
X167385987Y-111098748D01*
X167158252Y-110871013D01*
X167001000Y-110765941D01*
X167001000Y-109644469D01*
X167005281Y-109601000D01*
X167001000Y-109557531D01*
X167001000Y-109557523D01*
X166988195Y-109427510D01*
X166937589Y-109260687D01*
X166855411Y-109106941D01*
X166843959Y-109092987D01*
X166772532Y-109005953D01*
X166772530Y-109005951D01*
X166744817Y-108972183D01*
X166711050Y-108944471D01*
X165936103Y-108169525D01*
X165973000Y-107984033D01*
X165973000Y-107661967D01*
X165910168Y-107346088D01*
X165786918Y-107048537D01*
X165607987Y-106780748D01*
X165380252Y-106553013D01*
X165112463Y-106374082D01*
X164814912Y-106250832D01*
X164499033Y-106188000D01*
X164176967Y-106188000D01*
X163861088Y-106250832D01*
X163563537Y-106374082D01*
X163295748Y-106553013D01*
X163068013Y-106780748D01*
X162889082Y-107048537D01*
X162765832Y-107346088D01*
X162703000Y-107661967D01*
X162703000Y-107984033D01*
X162765832Y-108299912D01*
X162889082Y-108597463D01*
X163068013Y-108865252D01*
X163295748Y-109092987D01*
X163563537Y-109271918D01*
X163861088Y-109395168D01*
X164176967Y-109458000D01*
X164499033Y-109458000D01*
X164684525Y-109421103D01*
X165231000Y-109967579D01*
X165231000Y-110765940D01*
X165073748Y-110871013D01*
X164846013Y-111098748D01*
X164667082Y-111366537D01*
X164543832Y-111664088D01*
X164481000Y-111979967D01*
X164481000Y-112302033D01*
X164543832Y-112617912D01*
X164667082Y-112915463D01*
X164846013Y-113183252D01*
X165073748Y-113410987D01*
X165231000Y-113516060D01*
X165231001Y-115330420D01*
X161202956Y-119358466D01*
X161169183Y-119386183D01*
X161058589Y-119520942D01*
X160976411Y-119674688D01*
X160925805Y-119841511D01*
X160913000Y-119971524D01*
X160913000Y-119971531D01*
X160908719Y-120015000D01*
X160913000Y-120058469D01*
X160913000Y-120820477D01*
X160913001Y-120820487D01*
X160913000Y-122460247D01*
X160733203Y-122607803D01*
X160545931Y-122835995D01*
X160406775Y-123096337D01*
X160321084Y-123378824D01*
X160299400Y-123598982D01*
X160299400Y-124051019D01*
X160321084Y-124271177D01*
X160406775Y-124553664D01*
X160545931Y-124814006D01*
X160733203Y-125042197D01*
X160961395Y-125229469D01*
X161221737Y-125368625D01*
X161504224Y-125454316D01*
X161798000Y-125483251D01*
X162091777Y-125454316D01*
X162374264Y-125368625D01*
X162634606Y-125229469D01*
X162862797Y-125042197D01*
X163050069Y-124814006D01*
X163068000Y-124780459D01*
X163085931Y-124814006D01*
X163273203Y-125042197D01*
X163501395Y-125229469D01*
X163761737Y-125368625D01*
X164044224Y-125454316D01*
X164338000Y-125483251D01*
X164631777Y-125454316D01*
X164914264Y-125368625D01*
X165174606Y-125229469D01*
X165402797Y-125042197D01*
X165590069Y-124814006D01*
X165608000Y-124780459D01*
X165625931Y-124814006D01*
X165813203Y-125042197D01*
X166041395Y-125229469D01*
X166301737Y-125368625D01*
X166584224Y-125454316D01*
X166878000Y-125483251D01*
X167171777Y-125454316D01*
X167454264Y-125368625D01*
X167714606Y-125229469D01*
X167942797Y-125042197D01*
X168130069Y-124814006D01*
X168148000Y-124780459D01*
X168165931Y-124814006D01*
X168353203Y-125042197D01*
X168581395Y-125229469D01*
X168841737Y-125368625D01*
X169124224Y-125454316D01*
X169418000Y-125483251D01*
X169711777Y-125454316D01*
X169994264Y-125368625D01*
X170254606Y-125229469D01*
X170482797Y-125042197D01*
X170670069Y-124814006D01*
X170688000Y-124780459D01*
X170705931Y-124814006D01*
X170893203Y-125042197D01*
X171121395Y-125229469D01*
X171381737Y-125368625D01*
X171664224Y-125454316D01*
X171958000Y-125483251D01*
X172251777Y-125454316D01*
X172534264Y-125368625D01*
X172794606Y-125229469D01*
X173022797Y-125042197D01*
X173210069Y-124814006D01*
X173228000Y-124780459D01*
X173245931Y-124814006D01*
X173433203Y-125042197D01*
X173661395Y-125229469D01*
X173921737Y-125368625D01*
X174204224Y-125454316D01*
X174498000Y-125483251D01*
X174791777Y-125454316D01*
X175074264Y-125368625D01*
X175334606Y-125229469D01*
X175562797Y-125042197D01*
X175750069Y-124814006D01*
X175889225Y-124553663D01*
X175974916Y-124271176D01*
X175996600Y-124051018D01*
X175996600Y-123598981D01*
X175974916Y-123378823D01*
X175889225Y-123096336D01*
X175750069Y-122835994D01*
X175562797Y-122607803D01*
X175383000Y-122460248D01*
X175383000Y-121582465D01*
X175387281Y-121538999D01*
X175383000Y-121495533D01*
X175383000Y-121495523D01*
X175370195Y-121365510D01*
X175319589Y-121198687D01*
X175237411Y-121044941D01*
X175210361Y-121011981D01*
X175154532Y-120943953D01*
X175154530Y-120943951D01*
X175126817Y-120910183D01*
X175093050Y-120882471D01*
X173859000Y-119648422D01*
X173859000Y-115809578D01*
X175347049Y-114321530D01*
X175380817Y-114293817D01*
X175491411Y-114159059D01*
X175573589Y-114005313D01*
X175624195Y-113838490D01*
X175637000Y-113708477D01*
X175637000Y-113708469D01*
X175641281Y-113665000D01*
X175637000Y-113621531D01*
X175637000Y-106366465D01*
X175641281Y-106322999D01*
X175637000Y-106279533D01*
X175637000Y-106279523D01*
X175624195Y-106149510D01*
X175573589Y-105982687D01*
X175491411Y-105828941D01*
X175380817Y-105694183D01*
X175347050Y-105666471D01*
X174114534Y-104433956D01*
X174086817Y-104400183D01*
X173952059Y-104289589D01*
X173798313Y-104207411D01*
X173631490Y-104156805D01*
X173593721Y-104153085D01*
X173574031Y-104116248D01*
X173369714Y-103867286D01*
X173237767Y-103759000D01*
X173369714Y-103650714D01*
X173574031Y-103401752D01*
X173593721Y-103364915D01*
X173631490Y-103361195D01*
X173798313Y-103310589D01*
X173952059Y-103228411D01*
X174086817Y-103117817D01*
X174114534Y-103084044D01*
X175093050Y-102105529D01*
X175126817Y-102077817D01*
X175237411Y-101943059D01*
X175319589Y-101789313D01*
X175370195Y-101622490D01*
X175383000Y-101492477D01*
X175383000Y-101492467D01*
X175387281Y-101449001D01*
X175383000Y-101405535D01*
X175383000Y-98468465D01*
X175387281Y-98424999D01*
X175383000Y-98381533D01*
X175383000Y-98381523D01*
X175370195Y-98251510D01*
X175319589Y-98084687D01*
X175237411Y-97930941D01*
X175126817Y-97796183D01*
X175093049Y-97768470D01*
X168051115Y-90726537D01*
X168023398Y-90692764D01*
X167888640Y-90582170D01*
X167734894Y-90499992D01*
X167568071Y-90449386D01*
X167438058Y-90436581D01*
X167438050Y-90436581D01*
X167394581Y-90432300D01*
X167351112Y-90436581D01*
X159733160Y-90436581D01*
X157265296Y-87968718D01*
X157309343Y-87823516D01*
X157340911Y-87503000D01*
X157309343Y-87182484D01*
X157215852Y-86874285D01*
X157064031Y-86590248D01*
X156859714Y-86341286D01*
X156727767Y-86233000D01*
X156859714Y-86124714D01*
X157064031Y-85875752D01*
X157078865Y-85848000D01*
X157690523Y-85848000D01*
X157734000Y-85852282D01*
X157777476Y-85848000D01*
X157777477Y-85848000D01*
X157907490Y-85835195D01*
X158074313Y-85784589D01*
X158208248Y-85713000D01*
X161537572Y-85713000D01*
X161537572Y-89533000D01*
X174250429Y-89533000D01*
X174250429Y-85713000D01*
X161537572Y-85713000D01*
X158208248Y-85713000D01*
X158228059Y-85702411D01*
X158362817Y-85591817D01*
X158473411Y-85457059D01*
X158555589Y-85303313D01*
X158606195Y-85136490D01*
X158623282Y-84963000D01*
X158619000Y-84919523D01*
X158619000Y-82789578D01*
X159882579Y-81526000D01*
X165814531Y-81526000D01*
X165858000Y-81530281D01*
X165901469Y-81526000D01*
X165901477Y-81526000D01*
X166031490Y-81513195D01*
X166198313Y-81462589D01*
X166352059Y-81380411D01*
X166486817Y-81269817D01*
X166514534Y-81236044D01*
X170013049Y-77737530D01*
X170046817Y-77709817D01*
X170157411Y-77575059D01*
X170239589Y-77421313D01*
X170290195Y-77254490D01*
X170303000Y-77124477D01*
X170303000Y-77124467D01*
X170307281Y-77081001D01*
X170303000Y-77037535D01*
X170303000Y-76929753D01*
X170482797Y-76782197D01*
X170670069Y-76554006D01*
X170688000Y-76520459D01*
X170705931Y-76554006D01*
X170893203Y-76782197D01*
X171121395Y-76969469D01*
X171381737Y-77108625D01*
X171664224Y-77194316D01*
X171958000Y-77223251D01*
X172251777Y-77194316D01*
X172534264Y-77108625D01*
X172794606Y-76969469D01*
X173022797Y-76782197D01*
X173210069Y-76554006D01*
X173228000Y-76520459D01*
X173245931Y-76554006D01*
X173433203Y-76782197D01*
X173661395Y-76969469D01*
X173921737Y-77108625D01*
X174204224Y-77194316D01*
X174498000Y-77223251D01*
X174791777Y-77194316D01*
X175074264Y-77108625D01*
X175334606Y-76969469D01*
X175562797Y-76782197D01*
X175750069Y-76554006D01*
X175889225Y-76293663D01*
X175974916Y-76011176D01*
X175996600Y-75791018D01*
X175996600Y-75338981D01*
X175974916Y-75118823D01*
X175889225Y-74836336D01*
X175750069Y-74575994D01*
X175562797Y-74347803D01*
X175334605Y-74160531D01*
X175074263Y-74021375D01*
X174791776Y-73935684D01*
X174498000Y-73906749D01*
X174204223Y-73935684D01*
X173921736Y-74021375D01*
X173661394Y-74160531D01*
X173433203Y-74347803D01*
X173245931Y-74575995D01*
X173228000Y-74609541D01*
X173210069Y-74575994D01*
X173022797Y-74347803D01*
X172794605Y-74160531D01*
X172534263Y-74021375D01*
X172251776Y-73935684D01*
X171958000Y-73906749D01*
X171664223Y-73935684D01*
X171381736Y-74021375D01*
X171121394Y-74160531D01*
X170893203Y-74347803D01*
X170705931Y-74575995D01*
X170688000Y-74609541D01*
X170670069Y-74575994D01*
X170482797Y-74347803D01*
X170254605Y-74160531D01*
X169994263Y-74021375D01*
X169711776Y-73935684D01*
X169418000Y-73906749D01*
X169124223Y-73935684D01*
X168841736Y-74021375D01*
X168581394Y-74160531D01*
X168353203Y-74347803D01*
X168165931Y-74575995D01*
X168148000Y-74609541D01*
X168130069Y-74575994D01*
X167942797Y-74347803D01*
X167714605Y-74160531D01*
X167454263Y-74021375D01*
X167171776Y-73935684D01*
X166878000Y-73906749D01*
X166584223Y-73935684D01*
X166301736Y-74021375D01*
X166041394Y-74160531D01*
X165813203Y-74347803D01*
X165625931Y-74575995D01*
X165608000Y-74609541D01*
X165590069Y-74575994D01*
X165402797Y-74347803D01*
X165174605Y-74160531D01*
X164914263Y-74021375D01*
X164631776Y-73935684D01*
X164338000Y-73906749D01*
X164044223Y-73935684D01*
X163761736Y-74021375D01*
X163501394Y-74160531D01*
X163273203Y-74347803D01*
X163085931Y-74575995D01*
X163068000Y-74609541D01*
X163050069Y-74575994D01*
X162862797Y-74347803D01*
X162634605Y-74160531D01*
X162374263Y-74021375D01*
X162091776Y-73935684D01*
X161798000Y-73906749D01*
X161504223Y-73935684D01*
X161221736Y-74021375D01*
X160961394Y-74160531D01*
X160733203Y-74347803D01*
X160545931Y-74575995D01*
X160528000Y-74609541D01*
X160510069Y-74575994D01*
X160322797Y-74347803D01*
X160094605Y-74160531D01*
X159834263Y-74021375D01*
X159551776Y-73935684D01*
X159258000Y-73906749D01*
X158964223Y-73935684D01*
X158681736Y-74021375D01*
X158421394Y-74160531D01*
X158193203Y-74347803D01*
X158005931Y-74575995D01*
X157988000Y-74609541D01*
X157970069Y-74575994D01*
X157782797Y-74347803D01*
X157554605Y-74160531D01*
X157294263Y-74021375D01*
X157011776Y-73935684D01*
X156718000Y-73906749D01*
X156424223Y-73935684D01*
X156141736Y-74021375D01*
X155881394Y-74160531D01*
X155653203Y-74347803D01*
X155465931Y-74575995D01*
X155326775Y-74836337D01*
X155241084Y-75118824D01*
X155219400Y-75338982D01*
X155219400Y-75791019D01*
X155241084Y-76011177D01*
X155326775Y-76293664D01*
X155465931Y-76554006D01*
X155653203Y-76782197D01*
X155881395Y-76969469D01*
X156141737Y-77108625D01*
X156424224Y-77194316D01*
X156684993Y-77220000D01*
X153713469Y-77220000D01*
X153670000Y-77215719D01*
X153626531Y-77220000D01*
X153626523Y-77220000D01*
X153511306Y-77231348D01*
X153496509Y-77232805D01*
X153445903Y-77248157D01*
X153329687Y-77283411D01*
X153175941Y-77365589D01*
X153175939Y-77365590D01*
X153175940Y-77365590D01*
X153074953Y-77448468D01*
X153074951Y-77448470D01*
X153041183Y-77476183D01*
X153013470Y-77509951D01*
X152058951Y-78464471D01*
X152025184Y-78492183D01*
X151997471Y-78525951D01*
X151997468Y-78525954D01*
X151914590Y-78626941D01*
X151832412Y-78780687D01*
X151781805Y-78947510D01*
X151764719Y-79121000D01*
X151769001Y-79164479D01*
X151769000Y-81085531D01*
X151764719Y-81129000D01*
X151769000Y-81172469D01*
X151769000Y-81172476D01*
X151781805Y-81302489D01*
X151832411Y-81469312D01*
X151914589Y-81623058D01*
X152025183Y-81757817D01*
X152058956Y-81785534D01*
X153291470Y-83018049D01*
X153319183Y-83051817D01*
X153352951Y-83079530D01*
X153352953Y-83079532D01*
X153424452Y-83138210D01*
X153453941Y-83162411D01*
X153607687Y-83244589D01*
X153774510Y-83295195D01*
X153812279Y-83298915D01*
X153831969Y-83335752D01*
X154036286Y-83584714D01*
X154168233Y-83693000D01*
X154036286Y-83801286D01*
X153831969Y-84050248D01*
X153680148Y-84334285D01*
X153586657Y-84642484D01*
X153555089Y-84963000D01*
X153586657Y-85283516D01*
X153680148Y-85591715D01*
X153831969Y-85875752D01*
X154036286Y-86124714D01*
X154168233Y-86233000D01*
X154036286Y-86341286D01*
X153831969Y-86590248D01*
X153680148Y-86874285D01*
X153586657Y-87182484D01*
X153555089Y-87503000D01*
X153586657Y-87823516D01*
X153630704Y-87968718D01*
X153330422Y-88269000D01*
X138415579Y-88269000D01*
X136927534Y-86780956D01*
X136899817Y-86747183D01*
X136765059Y-86636589D01*
X136611313Y-86554411D01*
X136444490Y-86503805D01*
X136314477Y-86491000D01*
X136314469Y-86491000D01*
X136271000Y-86486719D01*
X136227531Y-86491000D01*
X132319579Y-86491000D01*
X132203000Y-86374422D01*
X132203000Y-85831865D01*
X132230752Y-85817031D01*
X132479714Y-85612714D01*
X132583039Y-85486812D01*
X132794660Y-85705300D01*
X133059794Y-85888646D01*
X133355602Y-86016744D01*
X133477566Y-86041124D01*
X133731000Y-85921777D01*
X133731000Y-84328000D01*
X133711000Y-84328000D01*
X133711000Y-84074000D01*
X133731000Y-84074000D01*
X133731000Y-82480223D01*
X133985000Y-82480223D01*
X133985000Y-84074000D01*
X134005000Y-84074000D01*
X134005000Y-84328000D01*
X133985000Y-84328000D01*
X133985000Y-85921777D01*
X134238434Y-86041124D01*
X134360398Y-86016744D01*
X134656206Y-85888646D01*
X134921340Y-85705300D01*
X135132961Y-85486812D01*
X135236286Y-85612714D01*
X135485249Y-85817031D01*
X135769286Y-85968852D01*
X136077485Y-86062343D01*
X136398000Y-86093911D01*
X136718516Y-86062343D01*
X136863718Y-86018297D01*
X137419470Y-86574049D01*
X137447183Y-86607817D01*
X137480951Y-86635530D01*
X137480953Y-86635532D01*
X137533586Y-86678727D01*
X137581941Y-86718411D01*
X137735687Y-86800589D01*
X137902510Y-86851195D01*
X138032523Y-86864000D01*
X138032533Y-86864000D01*
X138075999Y-86868281D01*
X138119465Y-86864000D01*
X140418531Y-86864000D01*
X140462000Y-86868281D01*
X140505469Y-86864000D01*
X140505477Y-86864000D01*
X140635490Y-86851195D01*
X140802313Y-86800589D01*
X140956059Y-86718411D01*
X141090817Y-86607817D01*
X141118534Y-86574044D01*
X148169051Y-79523528D01*
X148202817Y-79495817D01*
X148313411Y-79361059D01*
X148395589Y-79207313D01*
X148446195Y-79040490D01*
X148459000Y-78910477D01*
X148459000Y-78910469D01*
X148463281Y-78867000D01*
X148459000Y-78823531D01*
X148459000Y-76929753D01*
X148638797Y-76782197D01*
X148826069Y-76554006D01*
X148844000Y-76520459D01*
X148861931Y-76554006D01*
X149049203Y-76782197D01*
X149277395Y-76969469D01*
X149537737Y-77108625D01*
X149820224Y-77194316D01*
X150114000Y-77223251D01*
X150407777Y-77194316D01*
X150690264Y-77108625D01*
X150950606Y-76969469D01*
X151178797Y-76782197D01*
X151366069Y-76554006D01*
X151384000Y-76520459D01*
X151401931Y-76554006D01*
X151589203Y-76782197D01*
X151817395Y-76969469D01*
X152077737Y-77108625D01*
X152360224Y-77194316D01*
X152654000Y-77223251D01*
X152947777Y-77194316D01*
X153230264Y-77108625D01*
X153490606Y-76969469D01*
X153718797Y-76782197D01*
X153906069Y-76554006D01*
X154045225Y-76293663D01*
X154130916Y-76011176D01*
X154152600Y-75791018D01*
X154152600Y-75338981D01*
X154130916Y-75118823D01*
X154045225Y-74836336D01*
X153906069Y-74575994D01*
X153718797Y-74347803D01*
X153490605Y-74160531D01*
X153230263Y-74021375D01*
X152947776Y-73935684D01*
X152654000Y-73906749D01*
X152360223Y-73935684D01*
X152077736Y-74021375D01*
X151817394Y-74160531D01*
X151589203Y-74347803D01*
X151401931Y-74575995D01*
X151384000Y-74609541D01*
X151366069Y-74575994D01*
X151178797Y-74347803D01*
X150950605Y-74160531D01*
X150690263Y-74021375D01*
X150407776Y-73935684D01*
X150114000Y-73906749D01*
X149820223Y-73935684D01*
X149537736Y-74021375D01*
X149277394Y-74160531D01*
X149049203Y-74347803D01*
X148861931Y-74575995D01*
X148844000Y-74609541D01*
X148826069Y-74575994D01*
X148638797Y-74347803D01*
X148410605Y-74160531D01*
X148150263Y-74021375D01*
X147867776Y-73935684D01*
X147574000Y-73906749D01*
X147280223Y-73935684D01*
X146997736Y-74021375D01*
X146737394Y-74160531D01*
X146509203Y-74347803D01*
X146321931Y-74575995D01*
X146304000Y-74609541D01*
X146286069Y-74575994D01*
X146098797Y-74347803D01*
X145870605Y-74160531D01*
X145610263Y-74021375D01*
X145327776Y-73935684D01*
X145034000Y-73906749D01*
X144740223Y-73935684D01*
X144457736Y-74021375D01*
X144197394Y-74160531D01*
X143969203Y-74347803D01*
X143781931Y-74575995D01*
X143764000Y-74609541D01*
X143746069Y-74575994D01*
X143558797Y-74347803D01*
X143330605Y-74160531D01*
X143070263Y-74021375D01*
X142787776Y-73935684D01*
X142494000Y-73906749D01*
X142200223Y-73935684D01*
X141917736Y-74021375D01*
X141657394Y-74160531D01*
X141429203Y-74347803D01*
X141241931Y-74575995D01*
X141224000Y-74609541D01*
X141206069Y-74575994D01*
X141018797Y-74347803D01*
X140790605Y-74160531D01*
X140530263Y-74021375D01*
X140247776Y-73935684D01*
X139954000Y-73906749D01*
X139660223Y-73935684D01*
X139377736Y-74021375D01*
X139117394Y-74160531D01*
X138889203Y-74347803D01*
X138701931Y-74575995D01*
X138680576Y-74615947D01*
X138532486Y-74413271D01*
X138316035Y-74214267D01*
X138064919Y-74061314D01*
X137788789Y-73960291D01*
X137773026Y-73957642D01*
X137541000Y-74078783D01*
X137541000Y-75438000D01*
X137561000Y-75438000D01*
X137561000Y-75692000D01*
X137541000Y-75692000D01*
X137541000Y-77051217D01*
X137773026Y-77172358D01*
X137788789Y-77169709D01*
X138064919Y-77068686D01*
X138316035Y-76915733D01*
X138532486Y-76716729D01*
X138680576Y-76514053D01*
X138701931Y-76554006D01*
X138889203Y-76782197D01*
X139117395Y-76969469D01*
X139377737Y-77108625D01*
X139660224Y-77194316D01*
X139954000Y-77223251D01*
X140247777Y-77194316D01*
X140530264Y-77108625D01*
X140790606Y-76969469D01*
X141018797Y-76782197D01*
X141206069Y-76554006D01*
X141224000Y-76520459D01*
X141241931Y-76554006D01*
X141429203Y-76782197D01*
X141657395Y-76969469D01*
X141917737Y-77108625D01*
X142200224Y-77194316D01*
X142494000Y-77223251D01*
X142787777Y-77194316D01*
X143070264Y-77108625D01*
X143330606Y-76969469D01*
X143558797Y-76782197D01*
X143746069Y-76554006D01*
X143764000Y-76520459D01*
X143781931Y-76554006D01*
X143969203Y-76782197D01*
X144149001Y-76929753D01*
X144149000Y-78823523D01*
X144149000Y-79138421D01*
X140279304Y-83008118D01*
X140099714Y-82789286D01*
X139850751Y-82584969D01*
X139566714Y-82433148D01*
X139258515Y-82339657D01*
X138938000Y-82308089D01*
X138617484Y-82339657D01*
X138309285Y-82433148D01*
X138025248Y-82584969D01*
X137776286Y-82789286D01*
X137668000Y-82921234D01*
X137559714Y-82789286D01*
X137310751Y-82584969D01*
X137026714Y-82433148D01*
X136718515Y-82339657D01*
X136398000Y-82308089D01*
X136077484Y-82339657D01*
X135769285Y-82433148D01*
X135485248Y-82584969D01*
X135236286Y-82789286D01*
X135132961Y-82915189D01*
X134921340Y-82696700D01*
X134656206Y-82513354D01*
X134360398Y-82385256D01*
X134238434Y-82360876D01*
X133985000Y-82480223D01*
X133731000Y-82480223D01*
X133477566Y-82360876D01*
X133355602Y-82385256D01*
X133059794Y-82513354D01*
X132794660Y-82696700D01*
X132583039Y-82915188D01*
X132479714Y-82789286D01*
X132230751Y-82584969D01*
X131946714Y-82433148D01*
X131638515Y-82339657D01*
X131318000Y-82308089D01*
X130997484Y-82339657D01*
X130689285Y-82433148D01*
X130405248Y-82584969D01*
X130156286Y-82789286D01*
X129951969Y-83038249D01*
X129803508Y-83316000D01*
X129329469Y-83316000D01*
X129286000Y-83311719D01*
X129242531Y-83316000D01*
X129242523Y-83316000D01*
X129127306Y-83327348D01*
X129112509Y-83328805D01*
X129089609Y-83335752D01*
X128945687Y-83379411D01*
X128822700Y-83445148D01*
X128791941Y-83461589D01*
X128690953Y-83544468D01*
X128690951Y-83544470D01*
X128657183Y-83572183D01*
X128629470Y-83605951D01*
X124626954Y-87608468D01*
X124535405Y-87700017D01*
X124491088Y-87708832D01*
X124193537Y-87832082D01*
X123925748Y-88011013D01*
X123698013Y-88238748D01*
X123519082Y-88506537D01*
X123395832Y-88804088D01*
X123333000Y-89119967D01*
X123333000Y-89442033D01*
X123395832Y-89757912D01*
X123519082Y-90055463D01*
X123698013Y-90323252D01*
X123925748Y-90550987D01*
X124193537Y-90729918D01*
X124491088Y-90853168D01*
X124806967Y-90916000D01*
X125129033Y-90916000D01*
X125444912Y-90853168D01*
X125742463Y-90729918D01*
X126010252Y-90550987D01*
X126237987Y-90323252D01*
X126416918Y-90055463D01*
X126540168Y-89757912D01*
X126603000Y-89442033D01*
X126603000Y-89119967D01*
X126540168Y-88804088D01*
X126416918Y-88506537D01*
X126342867Y-88395711D01*
X129652579Y-85086000D01*
X129803507Y-85086000D01*
X129951969Y-85363752D01*
X130156286Y-85612714D01*
X130405249Y-85817031D01*
X130433001Y-85831865D01*
X130433001Y-86697521D01*
X130428719Y-86741000D01*
X130445805Y-86914490D01*
X130496412Y-87081313D01*
X130578590Y-87235059D01*
X130661468Y-87336046D01*
X130661471Y-87336049D01*
X130689184Y-87369817D01*
X130722951Y-87397529D01*
X131296470Y-87971049D01*
X131324183Y-88004817D01*
X131357951Y-88032530D01*
X131357953Y-88032532D01*
X131458941Y-88115411D01*
X131612686Y-88197589D01*
X131748368Y-88238748D01*
X131779510Y-88248195D01*
X131909523Y-88261000D01*
X131909531Y-88261000D01*
X131953000Y-88265281D01*
X131996469Y-88261000D01*
X133843145Y-88261000D01*
X133752941Y-88396000D01*
X129075465Y-88396000D01*
X129031999Y-88391719D01*
X128988533Y-88396000D01*
X128988523Y-88396000D01*
X128858510Y-88408805D01*
X128691687Y-88459411D01*
X128537941Y-88541589D01*
X128537939Y-88541590D01*
X128537940Y-88541590D01*
X128436953Y-88624468D01*
X128436951Y-88624470D01*
X128403183Y-88652183D01*
X128375470Y-88685951D01*
X125060525Y-92000897D01*
X124875033Y-91964000D01*
X124552967Y-91964000D01*
X124237088Y-92026832D01*
X123939537Y-92150082D01*
X123671748Y-92329013D01*
X123444013Y-92556748D01*
X123265082Y-92824537D01*
X123141832Y-93122088D01*
X123079000Y-93437967D01*
X123079000Y-93760033D01*
X123141832Y-94075912D01*
X123265082Y-94373463D01*
X123444013Y-94641252D01*
X123671748Y-94868987D01*
X123939537Y-95047918D01*
X124237088Y-95171168D01*
X124552967Y-95234000D01*
X124875033Y-95234000D01*
X125190912Y-95171168D01*
X125488463Y-95047918D01*
X125756252Y-94868987D01*
X125983987Y-94641252D01*
X126162918Y-94373463D01*
X126286168Y-94075912D01*
X126349000Y-93760033D01*
X126349000Y-93437967D01*
X126312103Y-93252475D01*
X129398579Y-90166000D01*
X133752941Y-90166000D01*
X133858013Y-90323252D01*
X134085748Y-90550987D01*
X134353537Y-90729918D01*
X134651088Y-90853168D01*
X134966967Y-90916000D01*
X135289033Y-90916000D01*
X135604912Y-90853168D01*
X135902463Y-90729918D01*
X136170252Y-90550987D01*
X136297805Y-90423434D01*
X153607876Y-90423434D01*
X153632256Y-90545398D01*
X153760354Y-90841206D01*
X153943700Y-91106340D01*
X154175248Y-91330610D01*
X154446100Y-91505398D01*
X154745847Y-91623987D01*
X155062970Y-91681819D01*
X155321000Y-91524016D01*
X155321000Y-90170000D01*
X153727223Y-90170000D01*
X153607876Y-90423434D01*
X136297805Y-90423434D01*
X136397987Y-90323252D01*
X136576918Y-90055463D01*
X136700168Y-89757912D01*
X136763000Y-89442033D01*
X136763000Y-89119967D01*
X136762904Y-89119482D01*
X137392470Y-89749049D01*
X137420183Y-89782817D01*
X137453951Y-89810530D01*
X137453953Y-89810532D01*
X137533783Y-89876047D01*
X137554941Y-89893411D01*
X137708687Y-89975589D01*
X137875510Y-90026195D01*
X138005523Y-90039000D01*
X138005531Y-90039000D01*
X138049000Y-90043281D01*
X138092469Y-90039000D01*
X153653531Y-90039000D01*
X153697000Y-90043281D01*
X153740469Y-90039000D01*
X153740477Y-90039000D01*
X153870490Y-90026195D01*
X154037313Y-89975589D01*
X154148797Y-89916000D01*
X155321000Y-89916000D01*
X155321000Y-89896000D01*
X155575000Y-89896000D01*
X155575000Y-89916000D01*
X155595000Y-89916000D01*
X155595000Y-90170000D01*
X155575000Y-90170000D01*
X155575000Y-91524016D01*
X155833030Y-91681819D01*
X156150153Y-91623987D01*
X156449900Y-91505398D01*
X156720752Y-91330610D01*
X156952300Y-91106340D01*
X157135646Y-90841206D01*
X157263744Y-90545398D01*
X157276251Y-90482830D01*
X158710051Y-91916630D01*
X158737764Y-91950398D01*
X158771532Y-91978111D01*
X158771534Y-91978113D01*
X158830898Y-92026832D01*
X158872522Y-92060992D01*
X159026268Y-92143170D01*
X159193091Y-92193776D01*
X159323104Y-92206581D01*
X159323114Y-92206581D01*
X159366580Y-92210862D01*
X159410047Y-92206581D01*
X167028003Y-92206581D01*
X173613001Y-98791580D01*
X173613001Y-99103586D01*
X173462300Y-98885660D01*
X173230752Y-98661390D01*
X172959900Y-98486602D01*
X172660153Y-98368013D01*
X172343030Y-98310181D01*
X172085000Y-98467984D01*
X172085000Y-99822000D01*
X172105000Y-99822000D01*
X172105000Y-100076000D01*
X172085000Y-100076000D01*
X172085000Y-100096000D01*
X171831000Y-100096000D01*
X171831000Y-100076000D01*
X170237223Y-100076000D01*
X170117876Y-100329434D01*
X170142256Y-100451398D01*
X170270354Y-100747206D01*
X170453700Y-101012340D01*
X170672188Y-101223961D01*
X170546286Y-101327286D01*
X170341969Y-101576248D01*
X170327135Y-101604000D01*
X165241078Y-101604000D01*
X165293808Y-101458413D01*
X164338000Y-100502605D01*
X163382192Y-101458413D01*
X163434922Y-101604000D01*
X163177855Y-101604000D01*
X163092058Y-101533588D01*
X162938312Y-101451410D01*
X162771489Y-101400804D01*
X162641476Y-101387999D01*
X162641468Y-101387999D01*
X162597999Y-101383718D01*
X162554530Y-101387999D01*
X158353000Y-101387999D01*
X158353000Y-101311967D01*
X158290168Y-100996088D01*
X158166918Y-100698537D01*
X157987987Y-100430748D01*
X157942834Y-100385595D01*
X162696282Y-100385595D01*
X162740039Y-100704675D01*
X162845205Y-101009088D01*
X162938186Y-101183044D01*
X163202587Y-101278808D01*
X164158395Y-100323000D01*
X164517605Y-100323000D01*
X165473413Y-101278808D01*
X165737814Y-101183044D01*
X165878704Y-100893429D01*
X165960384Y-100581892D01*
X165979718Y-100260405D01*
X165935961Y-99941325D01*
X165830795Y-99636912D01*
X165794264Y-99568566D01*
X170117876Y-99568566D01*
X170237223Y-99822000D01*
X171831000Y-99822000D01*
X171831000Y-98467984D01*
X171572970Y-98310181D01*
X171255847Y-98368013D01*
X170956100Y-98486602D01*
X170685248Y-98661390D01*
X170453700Y-98885660D01*
X170270354Y-99150794D01*
X170142256Y-99446602D01*
X170117876Y-99568566D01*
X165794264Y-99568566D01*
X165737814Y-99462956D01*
X165473413Y-99367192D01*
X164517605Y-100323000D01*
X164158395Y-100323000D01*
X163202587Y-99367192D01*
X162938186Y-99462956D01*
X162797296Y-99752571D01*
X162715616Y-100064108D01*
X162696282Y-100385595D01*
X157942834Y-100385595D01*
X157760252Y-100203013D01*
X157492463Y-100024082D01*
X157194912Y-99900832D01*
X156879033Y-99838000D01*
X156556967Y-99838000D01*
X156241088Y-99900832D01*
X155943537Y-100024082D01*
X155675748Y-100203013D01*
X155448013Y-100430748D01*
X155269082Y-100698537D01*
X155145832Y-100996088D01*
X155083000Y-101311967D01*
X155083000Y-101634033D01*
X155119896Y-101819525D01*
X153074958Y-103864464D01*
X153074953Y-103864468D01*
X153074946Y-103864475D01*
X153041184Y-103892183D01*
X153013476Y-103925945D01*
X152033422Y-104906000D01*
X151185059Y-104906000D01*
X151079987Y-104748748D01*
X150852252Y-104521013D01*
X150852233Y-104521000D01*
X150852252Y-104520987D01*
X151079987Y-104293252D01*
X151258918Y-104025463D01*
X151382168Y-103727912D01*
X151445000Y-103412033D01*
X151445000Y-103089967D01*
X151382168Y-102774088D01*
X151258918Y-102476537D01*
X151079987Y-102208748D01*
X150852252Y-101981013D01*
X150584463Y-101802082D01*
X150286912Y-101678832D01*
X149971033Y-101616000D01*
X149648967Y-101616000D01*
X149333088Y-101678832D01*
X149035537Y-101802082D01*
X148767748Y-101981013D01*
X148540013Y-102208748D01*
X148361082Y-102476537D01*
X148237832Y-102774088D01*
X148175000Y-103089967D01*
X148175000Y-103412033D01*
X148237832Y-103727912D01*
X148361082Y-104025463D01*
X148540013Y-104293252D01*
X148767748Y-104520987D01*
X148767767Y-104521000D01*
X148767748Y-104521013D01*
X148540013Y-104748748D01*
X148361082Y-105016537D01*
X148237832Y-105314088D01*
X148175000Y-105629967D01*
X148175000Y-105952033D01*
X148237832Y-106267912D01*
X148361082Y-106565463D01*
X148540013Y-106833252D01*
X148767748Y-107060987D01*
X148767767Y-107061000D01*
X148767748Y-107061013D01*
X148540013Y-107288748D01*
X148361082Y-107556537D01*
X148237832Y-107854088D01*
X148175000Y-108169967D01*
X148175000Y-108492033D01*
X148211897Y-108677525D01*
X147764955Y-109124467D01*
X147731182Y-109152184D01*
X147620588Y-109286943D01*
X147583970Y-109355451D01*
X147052950Y-109886472D01*
X147019183Y-109914184D01*
X146991470Y-109947952D01*
X146991467Y-109947955D01*
X146908589Y-110048942D01*
X146826411Y-110202688D01*
X146775804Y-110369511D01*
X146758718Y-110543001D01*
X146763000Y-110586480D01*
X146762999Y-112462422D01*
X145429422Y-113796000D01*
X133139465Y-113796000D01*
X133095999Y-113791719D01*
X133052533Y-113796000D01*
X133052523Y-113796000D01*
X132922510Y-113808805D01*
X132755687Y-113859411D01*
X132601941Y-113941589D01*
X132601939Y-113941590D01*
X132601940Y-113941590D01*
X132500953Y-114024468D01*
X132500951Y-114024470D01*
X132467183Y-114052183D01*
X132439470Y-114085951D01*
X132172525Y-114352896D01*
X131987033Y-114316000D01*
X131664967Y-114316000D01*
X131349088Y-114378832D01*
X131051537Y-114502082D01*
X130783748Y-114681013D01*
X130556013Y-114908748D01*
X130377082Y-115176537D01*
X130253832Y-115474088D01*
X130191000Y-115789967D01*
X130191000Y-116112033D01*
X130227897Y-116297525D01*
X129427422Y-117098000D01*
X125491239Y-117098000D01*
X125595987Y-116993252D01*
X125774918Y-116725463D01*
X125898168Y-116427912D01*
X125961000Y-116112033D01*
X125961000Y-115789967D01*
X125898168Y-115474088D01*
X125774918Y-115176537D01*
X125595987Y-114908748D01*
X125368252Y-114681013D01*
X125100463Y-114502082D01*
X124802912Y-114378832D01*
X124487033Y-114316000D01*
X124164967Y-114316000D01*
X123979475Y-114352896D01*
X122805000Y-113178422D01*
X122805000Y-113022413D01*
X123116192Y-113022413D01*
X123211956Y-113286814D01*
X123501571Y-113427704D01*
X123813108Y-113509384D01*
X124134595Y-113528718D01*
X124453675Y-113484961D01*
X124758088Y-113379795D01*
X124932044Y-113286814D01*
X125027808Y-113022413D01*
X124072000Y-112066605D01*
X123116192Y-113022413D01*
X122805000Y-113022413D01*
X122805000Y-112795148D01*
X122936587Y-112842808D01*
X123892395Y-111887000D01*
X124251605Y-111887000D01*
X125207413Y-112842808D01*
X125471814Y-112747044D01*
X125612704Y-112457429D01*
X125694384Y-112145892D01*
X125713718Y-111824405D01*
X125669961Y-111505325D01*
X125564795Y-111200912D01*
X125471814Y-111026956D01*
X125207413Y-110931192D01*
X124251605Y-111887000D01*
X123892395Y-111887000D01*
X122936587Y-110931192D01*
X122805000Y-110978852D01*
X122805000Y-110751587D01*
X123116192Y-110751587D01*
X124072000Y-111707395D01*
X125027808Y-110751587D01*
X124932044Y-110487186D01*
X124642429Y-110346296D01*
X124330892Y-110264616D01*
X124009405Y-110245282D01*
X123690325Y-110289039D01*
X123385912Y-110394205D01*
X123211956Y-110487186D01*
X123116192Y-110751587D01*
X122805000Y-110751587D01*
X122805000Y-106713999D01*
X126417421Y-106713999D01*
X128121470Y-108418049D01*
X128149183Y-108451817D01*
X128182951Y-108479530D01*
X128182953Y-108479532D01*
X128213366Y-108504491D01*
X128283941Y-108562411D01*
X128437687Y-108644589D01*
X128604510Y-108695195D01*
X128734523Y-108708000D01*
X128734533Y-108708000D01*
X128777999Y-108712281D01*
X128821465Y-108708000D01*
X133306531Y-108708000D01*
X133350000Y-108712281D01*
X133393469Y-108708000D01*
X133393477Y-108708000D01*
X133510996Y-108696426D01*
X131918525Y-110288897D01*
X131733033Y-110252000D01*
X131410967Y-110252000D01*
X131095088Y-110314832D01*
X130797537Y-110438082D01*
X130529748Y-110617013D01*
X130302013Y-110844748D01*
X130123082Y-111112537D01*
X129999832Y-111410088D01*
X129937000Y-111725967D01*
X129937000Y-112048033D01*
X129999832Y-112363912D01*
X130123082Y-112661463D01*
X130302013Y-112929252D01*
X130529748Y-113156987D01*
X130797537Y-113335918D01*
X131095088Y-113459168D01*
X131410967Y-113522000D01*
X131733033Y-113522000D01*
X132048912Y-113459168D01*
X132346463Y-113335918D01*
X132614252Y-113156987D01*
X132841987Y-112929252D01*
X133020918Y-112661463D01*
X133144168Y-112363912D01*
X133207000Y-112048033D01*
X133207000Y-112006413D01*
X141334192Y-112006413D01*
X141429956Y-112270814D01*
X141719571Y-112411704D01*
X142031108Y-112493384D01*
X142352595Y-112512718D01*
X142671675Y-112468961D01*
X142976088Y-112363795D01*
X143150044Y-112270814D01*
X143245808Y-112006413D01*
X142290000Y-111050605D01*
X141334192Y-112006413D01*
X133207000Y-112006413D01*
X133207000Y-111725967D01*
X133170103Y-111540475D01*
X133776983Y-110933595D01*
X140648282Y-110933595D01*
X140692039Y-111252675D01*
X140797205Y-111557088D01*
X140890186Y-111731044D01*
X141154587Y-111826808D01*
X142110395Y-110871000D01*
X142469605Y-110871000D01*
X143425413Y-111826808D01*
X143689814Y-111731044D01*
X143830704Y-111441429D01*
X143912384Y-111129892D01*
X143931718Y-110808405D01*
X143887961Y-110489325D01*
X143782795Y-110184912D01*
X143689814Y-110010956D01*
X143425413Y-109915192D01*
X142469605Y-110871000D01*
X142110395Y-110871000D01*
X141154587Y-109915192D01*
X140890186Y-110010956D01*
X140749296Y-110300571D01*
X140667616Y-110612108D01*
X140648282Y-110933595D01*
X133776983Y-110933595D01*
X136510579Y-108200000D01*
X140655000Y-108200000D01*
X140655000Y-108492033D01*
X140717832Y-108807912D01*
X140841082Y-109105463D01*
X141020013Y-109373252D01*
X141247748Y-109600987D01*
X141356600Y-109673720D01*
X141334192Y-109735587D01*
X142290000Y-110691395D01*
X143245808Y-109735587D01*
X143223400Y-109673720D01*
X143332252Y-109600987D01*
X143559987Y-109373252D01*
X143665059Y-109216000D01*
X143974531Y-109216000D01*
X144018000Y-109220281D01*
X144061469Y-109216000D01*
X144061477Y-109216000D01*
X144191490Y-109203195D01*
X144358313Y-109152589D01*
X144512059Y-109070411D01*
X144646817Y-108959817D01*
X144674534Y-108926044D01*
X144994044Y-108606534D01*
X145027817Y-108578817D01*
X145138411Y-108444059D01*
X145220589Y-108290313D01*
X145271195Y-108123490D01*
X145284000Y-107993477D01*
X145284000Y-107993467D01*
X145288281Y-107950001D01*
X145284000Y-107906535D01*
X145284000Y-101135469D01*
X145288281Y-101092000D01*
X145284000Y-101048531D01*
X145284000Y-101048523D01*
X145271195Y-100918510D01*
X145246858Y-100838282D01*
X145220589Y-100751686D01*
X145138411Y-100597941D01*
X145055532Y-100496953D01*
X145055530Y-100496951D01*
X145027817Y-100463183D01*
X144994050Y-100435471D01*
X144420532Y-99861954D01*
X144392817Y-99828183D01*
X144258059Y-99717589D01*
X144104313Y-99635411D01*
X143937490Y-99584805D01*
X143807477Y-99572000D01*
X143807469Y-99572000D01*
X143764000Y-99567719D01*
X143720531Y-99572000D01*
X142109000Y-99572000D01*
X142109000Y-99187587D01*
X163382192Y-99187587D01*
X164338000Y-100143395D01*
X165293808Y-99187587D01*
X165198044Y-98923186D01*
X164908429Y-98782296D01*
X164596892Y-98700616D01*
X164275405Y-98681282D01*
X163956325Y-98725039D01*
X163651912Y-98830205D01*
X163477956Y-98923186D01*
X163382192Y-99187587D01*
X142109000Y-99187587D01*
X142109000Y-98276059D01*
X142266252Y-98170987D01*
X142400826Y-98036413D01*
X150428192Y-98036413D01*
X150523956Y-98300814D01*
X150813571Y-98441704D01*
X151125108Y-98523384D01*
X151446595Y-98542718D01*
X151765675Y-98498961D01*
X152070088Y-98393795D01*
X152244044Y-98300814D01*
X152339808Y-98036413D01*
X151384000Y-97080605D01*
X150428192Y-98036413D01*
X142400826Y-98036413D01*
X142493987Y-97943252D01*
X142672918Y-97675463D01*
X142796168Y-97377912D01*
X142859000Y-97062033D01*
X142859000Y-96963595D01*
X149742282Y-96963595D01*
X149786039Y-97282675D01*
X149891205Y-97587088D01*
X149984186Y-97761044D01*
X150248587Y-97856808D01*
X151204395Y-96901000D01*
X151563605Y-96901000D01*
X152519413Y-97856808D01*
X152783814Y-97761044D01*
X152924704Y-97471429D01*
X153006384Y-97159892D01*
X153025718Y-96838405D01*
X152981961Y-96519325D01*
X152876795Y-96214912D01*
X152783814Y-96040956D01*
X152519413Y-95945192D01*
X151563605Y-96901000D01*
X151204395Y-96901000D01*
X150248587Y-95945192D01*
X149984186Y-96040956D01*
X149843296Y-96330571D01*
X149761616Y-96642108D01*
X149742282Y-96963595D01*
X142859000Y-96963595D01*
X142859000Y-96739967D01*
X142796168Y-96424088D01*
X142672918Y-96126537D01*
X142493987Y-95858748D01*
X142400826Y-95765587D01*
X150428192Y-95765587D01*
X151384000Y-96721395D01*
X152339808Y-95765587D01*
X152244044Y-95501186D01*
X151954429Y-95360296D01*
X151642892Y-95278616D01*
X151321405Y-95259282D01*
X151002325Y-95303039D01*
X150697912Y-95408205D01*
X150523956Y-95501186D01*
X150428192Y-95765587D01*
X142400826Y-95765587D01*
X142266252Y-95631013D01*
X141998463Y-95452082D01*
X141700912Y-95328832D01*
X141385033Y-95266000D01*
X141062967Y-95266000D01*
X140877475Y-95302896D01*
X140682992Y-95108413D01*
X155762192Y-95108413D01*
X155857956Y-95372814D01*
X156147571Y-95513704D01*
X156459108Y-95595384D01*
X156780595Y-95614718D01*
X157099675Y-95570961D01*
X157404088Y-95465795D01*
X157578044Y-95372814D01*
X157673808Y-95108413D01*
X156718000Y-94152605D01*
X155762192Y-95108413D01*
X140682992Y-95108413D01*
X139610174Y-94035595D01*
X155076282Y-94035595D01*
X155120039Y-94354675D01*
X155225205Y-94659088D01*
X155318186Y-94833044D01*
X155582587Y-94928808D01*
X156538395Y-93973000D01*
X156897605Y-93973000D01*
X157853413Y-94928808D01*
X158117814Y-94833044D01*
X158258704Y-94543429D01*
X158340384Y-94231892D01*
X158359718Y-93910405D01*
X158315961Y-93591325D01*
X158210795Y-93286912D01*
X158117814Y-93112956D01*
X157853413Y-93017192D01*
X156897605Y-93973000D01*
X156538395Y-93973000D01*
X155582587Y-93017192D01*
X155318186Y-93112956D01*
X155177296Y-93402571D01*
X155095616Y-93714108D01*
X155076282Y-94035595D01*
X139610174Y-94035595D01*
X138578532Y-93003954D01*
X138550817Y-92970183D01*
X138416059Y-92859589D01*
X138374896Y-92837587D01*
X155762192Y-92837587D01*
X156718000Y-93793395D01*
X157673808Y-92837587D01*
X157578044Y-92573186D01*
X157288429Y-92432296D01*
X156976892Y-92350616D01*
X156655405Y-92331282D01*
X156336325Y-92375039D01*
X156031912Y-92480205D01*
X155857956Y-92573186D01*
X155762192Y-92837587D01*
X138374896Y-92837587D01*
X138262313Y-92777411D01*
X138095490Y-92726805D01*
X137965477Y-92714000D01*
X137965469Y-92714000D01*
X137922000Y-92709719D01*
X137878531Y-92714000D01*
X136249059Y-92714000D01*
X136143987Y-92556748D01*
X135916252Y-92329013D01*
X135648463Y-92150082D01*
X135350912Y-92026832D01*
X135035033Y-91964000D01*
X134712967Y-91964000D01*
X134397088Y-92026832D01*
X134099537Y-92150082D01*
X133831748Y-92329013D01*
X133604013Y-92556748D01*
X133425082Y-92824537D01*
X133301832Y-93122088D01*
X133239000Y-93437967D01*
X133239000Y-93760033D01*
X133301832Y-94075912D01*
X133425082Y-94373463D01*
X133604013Y-94641252D01*
X133831748Y-94868987D01*
X134099537Y-95047918D01*
X134397088Y-95171168D01*
X134712967Y-95234000D01*
X135035033Y-95234000D01*
X135350912Y-95171168D01*
X135648463Y-95047918D01*
X135916252Y-94868987D01*
X136143987Y-94641252D01*
X136249059Y-94484000D01*
X137555422Y-94484000D01*
X139625896Y-96554475D01*
X139589000Y-96739967D01*
X139589000Y-97062033D01*
X139651832Y-97377912D01*
X139775082Y-97675463D01*
X139954013Y-97943252D01*
X140181748Y-98170987D01*
X140339000Y-98276060D01*
X140339001Y-99905521D01*
X140334719Y-99949000D01*
X140351805Y-100122490D01*
X140402412Y-100289313D01*
X140484590Y-100443059D01*
X140567468Y-100544046D01*
X140567471Y-100544049D01*
X140595184Y-100577817D01*
X140628952Y-100605530D01*
X141075466Y-101052044D01*
X141103183Y-101085817D01*
X141237941Y-101196411D01*
X141391687Y-101278589D01*
X141558510Y-101329195D01*
X141688523Y-101342000D01*
X141688533Y-101342000D01*
X141731999Y-101346281D01*
X141775465Y-101342000D01*
X143397422Y-101342000D01*
X143514000Y-101458579D01*
X143514000Y-101655376D01*
X143414482Y-101625188D01*
X143290000Y-101612928D01*
X141290000Y-101612928D01*
X141165518Y-101625188D01*
X141045820Y-101661498D01*
X140935506Y-101720463D01*
X140838815Y-101799815D01*
X140759463Y-101896506D01*
X140700498Y-102006820D01*
X140664188Y-102126518D01*
X140651928Y-102251000D01*
X140651928Y-104251000D01*
X140664188Y-104375482D01*
X140700498Y-104495180D01*
X140759463Y-104605494D01*
X140838815Y-104702185D01*
X140935506Y-104781537D01*
X140981630Y-104806191D01*
X140841082Y-105016537D01*
X140717832Y-105314088D01*
X140697958Y-105414000D01*
X135240578Y-105414000D01*
X135022537Y-105195959D01*
X135022532Y-105195953D01*
X134489000Y-104662422D01*
X134489000Y-102848059D01*
X134646252Y-102742987D01*
X134873987Y-102515252D01*
X135052918Y-102247463D01*
X135176168Y-101949912D01*
X135239000Y-101634033D01*
X135239000Y-101311967D01*
X135176168Y-100996088D01*
X135052918Y-100698537D01*
X134873987Y-100430748D01*
X134646252Y-100203013D01*
X134378463Y-100024082D01*
X134080912Y-99900832D01*
X133765033Y-99838000D01*
X133442967Y-99838000D01*
X133127088Y-99900832D01*
X132829537Y-100024082D01*
X132561748Y-100203013D01*
X132334013Y-100430748D01*
X132155082Y-100698537D01*
X132031832Y-100996088D01*
X131969000Y-101311967D01*
X131969000Y-101634033D01*
X132031832Y-101949912D01*
X132155082Y-102247463D01*
X132334013Y-102515252D01*
X132561748Y-102742987D01*
X132719000Y-102848060D01*
X132719001Y-103521654D01*
X132650429Y-103488296D01*
X132338892Y-103406616D01*
X132017405Y-103387282D01*
X131698325Y-103431039D01*
X131393912Y-103536205D01*
X131219956Y-103629186D01*
X131124192Y-103893587D01*
X132080000Y-104849395D01*
X132094143Y-104835253D01*
X132273748Y-105014858D01*
X132259605Y-105029000D01*
X133215413Y-105984808D01*
X133283551Y-105960129D01*
X133622421Y-106299000D01*
X132983422Y-106938000D01*
X129144579Y-106938000D01*
X128370992Y-106164413D01*
X131124192Y-106164413D01*
X131219956Y-106428814D01*
X131509571Y-106569704D01*
X131821108Y-106651384D01*
X132142595Y-106670718D01*
X132461675Y-106626961D01*
X132766088Y-106521795D01*
X132940044Y-106428814D01*
X133035808Y-106164413D01*
X132080000Y-105208605D01*
X131124192Y-106164413D01*
X128370992Y-106164413D01*
X127440533Y-105233955D01*
X127412816Y-105200182D01*
X127280504Y-105091595D01*
X130438282Y-105091595D01*
X130482039Y-105410675D01*
X130587205Y-105715088D01*
X130680186Y-105889044D01*
X130944587Y-105984808D01*
X131900395Y-105029000D01*
X130944587Y-104073192D01*
X130680186Y-104168956D01*
X130539296Y-104458571D01*
X130457616Y-104770108D01*
X130438282Y-105091595D01*
X127280504Y-105091595D01*
X127278058Y-105089588D01*
X127124312Y-105007410D01*
X126957489Y-104956804D01*
X126827476Y-104943999D01*
X126827468Y-104943999D01*
X126783999Y-104939718D01*
X126740530Y-104943999D01*
X123555000Y-104943999D01*
X123555000Y-104867967D01*
X123492168Y-104552088D01*
X123368918Y-104254537D01*
X123189987Y-103986748D01*
X122962252Y-103759013D01*
X122694463Y-103580082D01*
X122396912Y-103456832D01*
X122081033Y-103394000D01*
X121758967Y-103394000D01*
X121614465Y-103422743D01*
X122347985Y-102689224D01*
X122401748Y-102742987D01*
X122669537Y-102921918D01*
X122967088Y-103045168D01*
X123282967Y-103108000D01*
X123605033Y-103108000D01*
X123920912Y-103045168D01*
X124218463Y-102921918D01*
X124486252Y-102742987D01*
X124713987Y-102515252D01*
X124892918Y-102247463D01*
X125016168Y-101949912D01*
X125079000Y-101634033D01*
X125079000Y-101311967D01*
X125016168Y-100996088D01*
X124892918Y-100698537D01*
X124713987Y-100430748D01*
X124486252Y-100203013D01*
X124218463Y-100024082D01*
X123920912Y-99900832D01*
X123605033Y-99838000D01*
X123282967Y-99838000D01*
X122967088Y-99900832D01*
X122669537Y-100024082D01*
X122401748Y-100203013D01*
X122174013Y-100430748D01*
X122040363Y-100630769D01*
X121972317Y-100651411D01*
X121818571Y-100733589D01*
X121789082Y-100757790D01*
X121717583Y-100816468D01*
X121717581Y-100816470D01*
X121683813Y-100844183D01*
X121656100Y-100877951D01*
X119800956Y-102733096D01*
X119767183Y-102760813D01*
X119656589Y-102895572D01*
X119574411Y-103049318D01*
X119523805Y-103216141D01*
X119511000Y-103346154D01*
X119511000Y-103346161D01*
X119506719Y-103389630D01*
X119511000Y-103433099D01*
X119511001Y-114637521D01*
X119506719Y-114681000D01*
X119523805Y-114854490D01*
X119574412Y-115021313D01*
X119656590Y-115175059D01*
X119739468Y-115276046D01*
X119739469Y-115276047D01*
X119767184Y-115309817D01*
X119800951Y-115337529D01*
X123041470Y-118578049D01*
X123069183Y-118611817D01*
X123102951Y-118639530D01*
X123102953Y-118639532D01*
X123174452Y-118698210D01*
X123203941Y-118722411D01*
X123357687Y-118804589D01*
X123524510Y-118855195D01*
X123654523Y-118868000D01*
X123654533Y-118868000D01*
X123697999Y-118872281D01*
X123741465Y-118868000D01*
X129750531Y-118868000D01*
X129794000Y-118872281D01*
X129837469Y-118868000D01*
X129837477Y-118868000D01*
X129967490Y-118855195D01*
X130134313Y-118804589D01*
X130288059Y-118722411D01*
X130422817Y-118611817D01*
X130450534Y-118578044D01*
X131479475Y-117549103D01*
X131664967Y-117586000D01*
X131987033Y-117586000D01*
X132302912Y-117523168D01*
X132600463Y-117399918D01*
X132868252Y-117220987D01*
X133095987Y-116993252D01*
X133274918Y-116725463D01*
X133398168Y-116427912D01*
X133461000Y-116112033D01*
X133461000Y-115789967D01*
X133424104Y-115604475D01*
X133462579Y-115566000D01*
X145752531Y-115566000D01*
X145796000Y-115570281D01*
X145839469Y-115566000D01*
X145839477Y-115566000D01*
X145969490Y-115553195D01*
X146136313Y-115502589D01*
X146290059Y-115420411D01*
X146424817Y-115309817D01*
X146452534Y-115276044D01*
X148243049Y-113485530D01*
X148276816Y-113457818D01*
X148340849Y-113379795D01*
X148387409Y-113323061D01*
X148387410Y-113323060D01*
X148469588Y-113169314D01*
X148520194Y-113002491D01*
X148532999Y-112872478D01*
X148532999Y-112872468D01*
X148537280Y-112829002D01*
X148532999Y-112785536D01*
X148532999Y-111902755D01*
X148540013Y-111913252D01*
X148767748Y-112140987D01*
X149035537Y-112319918D01*
X149333088Y-112443168D01*
X149648967Y-112506000D01*
X149971033Y-112506000D01*
X150286912Y-112443168D01*
X150584463Y-112319918D01*
X150852252Y-112140987D01*
X151079987Y-111913252D01*
X151258918Y-111645463D01*
X151382168Y-111347912D01*
X151445000Y-111032033D01*
X151445000Y-110709967D01*
X151382168Y-110394088D01*
X151258918Y-110096537D01*
X151079987Y-109828748D01*
X150852252Y-109601013D01*
X150852233Y-109601000D01*
X150852252Y-109600987D01*
X151079987Y-109373252D01*
X151185059Y-109216000D01*
X151779422Y-109216000D01*
X154357896Y-111794475D01*
X154321000Y-111979967D01*
X154321000Y-112302033D01*
X154383832Y-112617912D01*
X154507082Y-112915463D01*
X154686013Y-113183252D01*
X154913748Y-113410987D01*
X155181537Y-113589918D01*
X155479088Y-113713168D01*
X155794967Y-113776000D01*
X156117033Y-113776000D01*
X156432912Y-113713168D01*
X156730463Y-113589918D01*
X156998252Y-113410987D01*
X157225987Y-113183252D01*
X157404918Y-112915463D01*
X157528168Y-112617912D01*
X157591000Y-112302033D01*
X157591000Y-111979967D01*
X157528168Y-111664088D01*
X157404918Y-111366537D01*
X157225987Y-111098748D01*
X156998252Y-110871013D01*
X156730463Y-110692082D01*
X156432912Y-110568832D01*
X156117033Y-110506000D01*
X155794967Y-110506000D01*
X155609475Y-110542896D01*
X152802532Y-107735954D01*
X152774817Y-107702183D01*
X152640059Y-107591589D01*
X152486313Y-107509411D01*
X152319490Y-107458805D01*
X152189477Y-107446000D01*
X152189469Y-107446000D01*
X152146000Y-107441719D01*
X152102531Y-107446000D01*
X151185059Y-107446000D01*
X151079987Y-107288748D01*
X150852252Y-107061013D01*
X150852233Y-107061000D01*
X150852252Y-107060987D01*
X151079987Y-106833252D01*
X151185059Y-106676000D01*
X152356531Y-106676000D01*
X152400000Y-106680281D01*
X152443469Y-106676000D01*
X152443477Y-106676000D01*
X152573490Y-106663195D01*
X152740313Y-106612589D01*
X152894059Y-106530411D01*
X153028817Y-106419817D01*
X153056534Y-106386044D01*
X153289000Y-106153578D01*
X158373001Y-111237580D01*
X158373000Y-124474421D01*
X158129422Y-124718000D01*
X158021385Y-124718000D01*
X158109225Y-124553663D01*
X158194916Y-124271176D01*
X158216600Y-124051018D01*
X158216600Y-123598981D01*
X158194916Y-123378823D01*
X158109225Y-123096336D01*
X157970069Y-122835994D01*
X157782797Y-122607803D01*
X157554605Y-122420531D01*
X157294263Y-122281375D01*
X157011776Y-122195684D01*
X156718000Y-122166749D01*
X156424223Y-122195684D01*
X156141736Y-122281375D01*
X155881394Y-122420531D01*
X155653203Y-122607803D01*
X155465931Y-122835995D01*
X155444576Y-122875947D01*
X155296486Y-122673271D01*
X155080035Y-122474267D01*
X154828919Y-122321314D01*
X154552789Y-122220291D01*
X154537026Y-122217642D01*
X154305000Y-122338783D01*
X154305000Y-123698000D01*
X154325000Y-123698000D01*
X154325000Y-123952000D01*
X154305000Y-123952000D01*
X154305000Y-123972000D01*
X154051000Y-123972000D01*
X154051000Y-123952000D01*
X151765000Y-123952000D01*
X151765000Y-123972000D01*
X151511000Y-123972000D01*
X151511000Y-123952000D01*
X151491000Y-123952000D01*
X151491000Y-123698000D01*
X151511000Y-123698000D01*
X151511000Y-122338783D01*
X151765000Y-122338783D01*
X151765000Y-123698000D01*
X154051000Y-123698000D01*
X154051000Y-122338783D01*
X153818974Y-122217642D01*
X153803211Y-122220291D01*
X153527081Y-122321314D01*
X153275965Y-122474267D01*
X153059514Y-122673271D01*
X152908000Y-122880633D01*
X152756486Y-122673271D01*
X152540035Y-122474267D01*
X152288919Y-122321314D01*
X152012789Y-122220291D01*
X151997026Y-122217642D01*
X151765000Y-122338783D01*
X151511000Y-122338783D01*
X151278974Y-122217642D01*
X151263211Y-122220291D01*
X150987081Y-122321314D01*
X150735965Y-122474267D01*
X150519514Y-122673271D01*
X150371424Y-122875947D01*
X150350069Y-122835994D01*
X150162797Y-122607803D01*
X149934605Y-122420531D01*
X149674263Y-122281375D01*
X149391776Y-122195684D01*
X149098000Y-122166749D01*
X148804223Y-122195684D01*
X148521736Y-122281375D01*
X148261394Y-122420531D01*
X148033203Y-122607803D01*
X147845931Y-122835995D01*
X147828000Y-122869541D01*
X147810069Y-122835994D01*
X147622797Y-122607803D01*
X147394605Y-122420531D01*
X147134263Y-122281375D01*
X146851776Y-122195684D01*
X146558000Y-122166749D01*
X146264223Y-122195684D01*
X145981736Y-122281375D01*
X145721394Y-122420531D01*
X145493203Y-122607803D01*
X145305931Y-122835995D01*
X145288000Y-122869541D01*
X145270069Y-122835994D01*
X145082797Y-122607803D01*
X144854605Y-122420531D01*
X144594263Y-122281375D01*
X144311776Y-122195684D01*
X144018000Y-122166749D01*
X143724223Y-122195684D01*
X143441736Y-122281375D01*
X143181394Y-122420531D01*
X142953203Y-122607803D01*
X142765931Y-122835995D01*
X142748000Y-122869541D01*
X142730069Y-122835994D01*
X142542797Y-122607803D01*
X142314605Y-122420531D01*
X142054263Y-122281375D01*
X141771776Y-122195684D01*
X141478000Y-122166749D01*
X141184223Y-122195684D01*
X140901736Y-122281375D01*
X140641394Y-122420531D01*
X140413203Y-122607803D01*
X140225931Y-122835995D01*
X140208000Y-122869541D01*
X140190069Y-122835994D01*
X140002797Y-122607803D01*
X139774605Y-122420531D01*
X139514263Y-122281375D01*
X139231776Y-122195684D01*
X138938000Y-122166749D01*
X138644223Y-122195684D01*
X138361736Y-122281375D01*
X138101394Y-122420531D01*
X137873203Y-122607803D01*
X137685931Y-122835995D01*
X137546775Y-123096337D01*
X137461084Y-123378824D01*
X137439400Y-123598982D01*
X137439400Y-124051019D01*
X137461084Y-124271177D01*
X137546775Y-124553664D01*
X137685931Y-124814006D01*
X137873203Y-125042197D01*
X138101395Y-125229469D01*
X138361737Y-125368625D01*
X138644224Y-125454316D01*
X138938000Y-125483251D01*
X139231777Y-125454316D01*
X139514264Y-125368625D01*
X139774606Y-125229469D01*
X140002797Y-125042197D01*
X140190069Y-124814006D01*
X140208000Y-124780459D01*
X140225931Y-124814006D01*
X140413203Y-125042197D01*
X140641395Y-125229469D01*
X140901737Y-125368625D01*
X141184224Y-125454316D01*
X141478000Y-125483251D01*
X141771777Y-125454316D01*
X142054264Y-125368625D01*
X142314606Y-125229469D01*
X142542797Y-125042197D01*
X142730069Y-124814006D01*
X142748000Y-124780459D01*
X142765931Y-124814006D01*
X142953203Y-125042197D01*
X143181395Y-125229469D01*
X143441737Y-125368625D01*
X143724224Y-125454316D01*
X144018000Y-125483251D01*
X144311777Y-125454316D01*
X144594264Y-125368625D01*
X144854606Y-125229469D01*
X145082797Y-125042197D01*
X145270069Y-124814006D01*
X145288000Y-124780459D01*
X145305931Y-124814006D01*
X145493203Y-125042197D01*
X145721395Y-125229469D01*
X145981737Y-125368625D01*
X146264224Y-125454316D01*
X146558000Y-125483251D01*
X146851777Y-125454316D01*
X147134264Y-125368625D01*
X147394606Y-125229469D01*
X147622797Y-125042197D01*
X147810069Y-124814006D01*
X147828000Y-124780459D01*
X147845931Y-124814006D01*
X148033203Y-125042197D01*
X148213001Y-125189753D01*
X148213001Y-125297521D01*
X148208719Y-125341000D01*
X148225805Y-125514490D01*
X148268430Y-125655000D01*
X126909707Y-125655000D01*
X127039594Y-125525113D01*
X127331464Y-125088298D01*
X127532508Y-124602935D01*
X127635000Y-124087677D01*
X127635000Y-123562323D01*
X127532508Y-123047065D01*
X127331464Y-122561702D01*
X127039594Y-122124887D01*
X126668113Y-121753406D01*
X126231298Y-121461536D01*
X125745935Y-121260492D01*
X125230677Y-121158000D01*
X124705323Y-121158000D01*
X124190065Y-121260492D01*
X123704702Y-121461536D01*
X123267887Y-121753406D01*
X122896406Y-122124887D01*
X122604536Y-122561702D01*
X122403492Y-123047065D01*
X122301000Y-123562323D01*
X122301000Y-124087677D01*
X122403492Y-124602935D01*
X122604536Y-125088298D01*
X122896406Y-125525113D01*
X123026293Y-125655000D01*
X111708000Y-125655000D01*
X111708000Y-73735000D01*
X124296293Y-73735000D01*
X124166406Y-73864887D01*
X124166406Y-73864887D01*
G37*
X124166406Y-73864887D02*
X123874536Y-74301702D01*
X123673492Y-74787065D01*
X123571000Y-75302323D01*
X123571000Y-75827677D01*
X123673492Y-76342935D01*
X123874536Y-76828298D01*
X124166406Y-77265113D01*
X124537887Y-77636594D01*
X124974702Y-77928464D01*
X125460065Y-78129508D01*
X125975323Y-78232000D01*
X126500677Y-78232000D01*
X127015935Y-78129508D01*
X127501298Y-77928464D01*
X127938113Y-77636594D01*
X128309594Y-77265113D01*
X128601464Y-76828298D01*
X128657001Y-76694219D01*
X128729203Y-76782197D01*
X128957395Y-76969469D01*
X129217737Y-77108625D01*
X129500224Y-77194316D01*
X129794000Y-77223251D01*
X130087777Y-77194316D01*
X130370264Y-77108625D01*
X130630606Y-76969469D01*
X130858797Y-76782197D01*
X131046069Y-76554006D01*
X131064000Y-76520459D01*
X131081931Y-76554006D01*
X131269203Y-76782197D01*
X131497395Y-76969469D01*
X131757737Y-77108625D01*
X132040224Y-77194316D01*
X132334000Y-77223251D01*
X132627777Y-77194316D01*
X132910264Y-77108625D01*
X133170606Y-76969469D01*
X133398797Y-76782197D01*
X133586069Y-76554006D01*
X133604000Y-76520459D01*
X133621931Y-76554006D01*
X133809203Y-76782197D01*
X134037395Y-76969469D01*
X134297737Y-77108625D01*
X134580224Y-77194316D01*
X134874000Y-77223251D01*
X135167777Y-77194316D01*
X135450264Y-77108625D01*
X135710606Y-76969469D01*
X135938797Y-76782197D01*
X136126069Y-76554006D01*
X136147424Y-76514053D01*
X136295514Y-76716729D01*
X136511965Y-76915733D01*
X136763081Y-77068686D01*
X137039211Y-77169709D01*
X137054974Y-77172358D01*
X137287000Y-77051217D01*
X137287000Y-75692000D01*
X137267000Y-75692000D01*
X137267000Y-75438000D01*
X137287000Y-75438000D01*
X137287000Y-74078783D01*
X137054974Y-73957642D01*
X137039211Y-73960291D01*
X136763081Y-74061314D01*
X136511965Y-74214267D01*
X136295514Y-74413271D01*
X136147424Y-74615947D01*
X136126069Y-74575994D01*
X135938797Y-74347803D01*
X135710605Y-74160531D01*
X135450263Y-74021375D01*
X135167776Y-73935684D01*
X134874000Y-73906749D01*
X134580223Y-73935684D01*
X134297736Y-74021375D01*
X134037394Y-74160531D01*
X133809203Y-74347803D01*
X133621931Y-74575995D01*
X133604000Y-74609541D01*
X133586069Y-74575994D01*
X133398797Y-74347803D01*
X133170605Y-74160531D01*
X132910263Y-74021375D01*
X132627776Y-73935684D01*
X132334000Y-73906749D01*
X132040223Y-73935684D01*
X131757736Y-74021375D01*
X131497394Y-74160531D01*
X131269203Y-74347803D01*
X131081931Y-74575995D01*
X131064000Y-74609541D01*
X131046069Y-74575994D01*
X130858797Y-74347803D01*
X130630605Y-74160531D01*
X130370263Y-74021375D01*
X130087776Y-73935684D01*
X129794000Y-73906749D01*
X129500223Y-73935684D01*
X129217736Y-74021375D01*
X128957394Y-74160531D01*
X128729203Y-74347803D01*
X128657001Y-74435781D01*
X128601464Y-74301702D01*
X128309594Y-73864887D01*
X128179707Y-73735000D01*
X175219909Y-73735000D01*
X176328001Y-74843093D01*
X176328000Y-85944125D01*
X176324565Y-85979000D01*
X176328000Y-86013875D01*
X176328000Y-86013876D01*
X176338273Y-86118183D01*
X176378872Y-86252019D01*
X176444800Y-86375362D01*
X176533525Y-86483474D01*
X176560617Y-86505708D01*
X178868001Y-88813093D01*
X178868001Y-88863294D01*
X178738113Y-88733406D01*
X178301298Y-88441536D01*
X177815935Y-88240492D01*
X177300677Y-88138000D01*
X176775323Y-88138000D01*
X176260065Y-88240492D01*
X175774702Y-88441536D01*
X175337887Y-88733406D01*
X174966406Y-89104887D01*
X174674536Y-89541702D01*
X174473492Y-90027065D01*
X174371000Y-90542323D01*
X174371000Y-91067677D01*
X174473492Y-91582935D01*
X174674536Y-92068298D01*
X174966406Y-92505113D01*
X175337887Y-92876594D01*
X175774702Y-93168464D01*
X176260065Y-93369508D01*
X176775323Y-93472000D01*
X177300677Y-93472000D01*
X177815935Y-93369508D01*
X178301298Y-93168464D01*
X178738113Y-92876594D01*
X178868001Y-92746706D01*
X178868000Y-116803293D01*
X178738113Y-116673406D01*
X178301298Y-116381536D01*
X177815935Y-116180492D01*
X177300677Y-116078000D01*
X176775323Y-116078000D01*
X176260065Y-116180492D01*
X175774702Y-116381536D01*
X175337887Y-116673406D01*
X174966406Y-117044887D01*
X174674536Y-117481702D01*
X174473492Y-117967065D01*
X174371000Y-118482323D01*
X174371000Y-119007677D01*
X174473492Y-119522935D01*
X174674536Y-120008298D01*
X174966406Y-120445113D01*
X175337887Y-120816594D01*
X175774702Y-121108464D01*
X176260065Y-121309508D01*
X176775323Y-121412000D01*
X177300677Y-121412000D01*
X177815935Y-121309508D01*
X178301298Y-121108464D01*
X178738113Y-120816594D01*
X178868000Y-120686707D01*
X178868000Y-120990908D01*
X176560617Y-123298292D01*
X176533526Y-123320525D01*
X176511293Y-123347616D01*
X176444801Y-123428637D01*
X176378872Y-123551981D01*
X176338274Y-123685816D01*
X176324565Y-123825000D01*
X176328001Y-123859885D01*
X176328000Y-125655000D01*
X159695579Y-125655000D01*
X159853050Y-125497529D01*
X159886817Y-125469817D01*
X159919897Y-125429510D01*
X159997411Y-125335059D01*
X160079588Y-125181314D01*
X160079589Y-125181313D01*
X160130195Y-125014490D01*
X160143000Y-124884477D01*
X160143000Y-124884469D01*
X160147281Y-124841000D01*
X160143000Y-124797531D01*
X160143000Y-110914465D01*
X160147281Y-110870999D01*
X160143000Y-110827533D01*
X160143000Y-110827523D01*
X160130195Y-110697510D01*
X160079589Y-110530687D01*
X159997411Y-110376941D01*
X159886817Y-110242183D01*
X159853049Y-110214470D01*
X154555000Y-104916422D01*
X154555000Y-104887578D01*
X156371475Y-103071104D01*
X156556967Y-103108000D01*
X156879033Y-103108000D01*
X157114975Y-103061068D01*
X157177686Y-103094588D01*
X157344509Y-103145194D01*
X157474522Y-103157999D01*
X157474532Y-103157999D01*
X157517998Y-103162280D01*
X157561464Y-103157999D01*
X162234144Y-103157999D01*
X162319941Y-103228411D01*
X162473687Y-103310589D01*
X162640510Y-103361195D01*
X162770523Y-103374000D01*
X162770531Y-103374000D01*
X162814000Y-103378281D01*
X162857469Y-103374000D01*
X170327135Y-103374000D01*
X170341969Y-103401752D01*
X170546286Y-103650714D01*
X170678233Y-103759000D01*
X170546286Y-103867286D01*
X170341969Y-104116248D01*
X170190148Y-104400285D01*
X170096657Y-104708484D01*
X170065089Y-105029000D01*
X170096657Y-105349516D01*
X170190148Y-105657715D01*
X170341969Y-105941752D01*
X170546286Y-106190714D01*
X170678233Y-106299000D01*
X170546286Y-106407286D01*
X170341969Y-106656248D01*
X170322279Y-106693085D01*
X170284510Y-106696805D01*
X170117687Y-106747411D01*
X169963941Y-106829589D01*
X169963939Y-106829590D01*
X169963940Y-106829590D01*
X169862953Y-106912468D01*
X169862951Y-106912470D01*
X169829183Y-106940183D01*
X169801470Y-106973951D01*
X168822956Y-107952466D01*
X168789183Y-107980183D01*
X168678589Y-108114942D01*
X168596411Y-108268688D01*
X168545805Y-108435511D01*
X168533000Y-108565524D01*
X168533000Y-108565531D01*
X168528719Y-108609000D01*
X168533000Y-108652469D01*
X168533001Y-113113521D01*
X168528719Y-113157000D01*
X168545805Y-113330490D01*
X168596412Y-113497313D01*
X168678590Y-113651059D01*
X168761468Y-113752046D01*
X168761471Y-113752049D01*
X168789184Y-113785817D01*
X168822951Y-113813529D01*
X171073000Y-116063579D01*
X171073001Y-118701514D01*
X171073000Y-118701524D01*
X171073001Y-122460246D01*
X170893203Y-122607803D01*
X170705931Y-122835995D01*
X170688000Y-122869541D01*
X170670069Y-122835994D01*
X170482797Y-122607803D01*
X170254605Y-122420531D01*
X169994263Y-122281375D01*
X169711776Y-122195684D01*
X169418000Y-122166749D01*
X169124223Y-122195684D01*
X168841736Y-122281375D01*
X168581394Y-122420531D01*
X168353203Y-122607803D01*
X168165931Y-122835995D01*
X168148000Y-122869541D01*
X168130069Y-122835994D01*
X167942797Y-122607803D01*
X167714605Y-122420531D01*
X167454263Y-122281375D01*
X167171776Y-122195684D01*
X166878000Y-122166749D01*
X166584223Y-122195684D01*
X166301736Y-122281375D01*
X166041394Y-122420531D01*
X165813203Y-122607803D01*
X165625931Y-122835995D01*
X165608000Y-122869541D01*
X165590069Y-122835994D01*
X165402797Y-122607803D01*
X165174605Y-122420531D01*
X164914263Y-122281375D01*
X164631776Y-122195684D01*
X164338000Y-122166749D01*
X164044223Y-122195684D01*
X163761736Y-122281375D01*
X163501394Y-122420531D01*
X163273203Y-122607803D01*
X163085931Y-122835995D01*
X163068000Y-122869541D01*
X163050069Y-122835994D01*
X162862797Y-122607803D01*
X162683000Y-122460248D01*
X162683000Y-120381578D01*
X166711049Y-116353530D01*
X166744817Y-116325817D01*
X166773134Y-116291314D01*
X166855410Y-116191060D01*
X166855411Y-116191059D01*
X166937589Y-116037313D01*
X166988195Y-115870490D01*
X167001000Y-115740477D01*
X167001000Y-115740467D01*
X167005281Y-115697001D01*
X167001000Y-115653535D01*
X167001000Y-113516059D01*
X167158252Y-113410987D01*
X167385987Y-113183252D01*
X167564918Y-112915463D01*
X167688168Y-112617912D01*
X167751000Y-112302033D01*
X167751000Y-111979967D01*
X167688168Y-111664088D01*
X167564918Y-111366537D01*
X167385987Y-111098748D01*
X167158252Y-110871013D01*
X167001000Y-110765941D01*
X167001000Y-109644469D01*
X167005281Y-109601000D01*
X167001000Y-109557531D01*
X167001000Y-109557523D01*
X166988195Y-109427510D01*
X166937589Y-109260687D01*
X166855411Y-109106941D01*
X166843959Y-109092987D01*
X166772532Y-109005953D01*
X166772530Y-109005951D01*
X166744817Y-108972183D01*
X166711050Y-108944471D01*
X165936103Y-108169525D01*
X165973000Y-107984033D01*
X165973000Y-107661967D01*
X165910168Y-107346088D01*
X165786918Y-107048537D01*
X165607987Y-106780748D01*
X165380252Y-106553013D01*
X165112463Y-106374082D01*
X164814912Y-106250832D01*
X164499033Y-106188000D01*
X164176967Y-106188000D01*
X163861088Y-106250832D01*
X163563537Y-106374082D01*
X163295748Y-106553013D01*
X163068013Y-106780748D01*
X162889082Y-107048537D01*
X162765832Y-107346088D01*
X162703000Y-107661967D01*
X162703000Y-107984033D01*
X162765832Y-108299912D01*
X162889082Y-108597463D01*
X163068013Y-108865252D01*
X163295748Y-109092987D01*
X163563537Y-109271918D01*
X163861088Y-109395168D01*
X164176967Y-109458000D01*
X164499033Y-109458000D01*
X164684525Y-109421103D01*
X165231000Y-109967579D01*
X165231000Y-110765940D01*
X165073748Y-110871013D01*
X164846013Y-111098748D01*
X164667082Y-111366537D01*
X164543832Y-111664088D01*
X164481000Y-111979967D01*
X164481000Y-112302033D01*
X164543832Y-112617912D01*
X164667082Y-112915463D01*
X164846013Y-113183252D01*
X165073748Y-113410987D01*
X165231000Y-113516060D01*
X165231001Y-115330420D01*
X161202956Y-119358466D01*
X161169183Y-119386183D01*
X161058589Y-119520942D01*
X160976411Y-119674688D01*
X160925805Y-119841511D01*
X160913000Y-119971524D01*
X160913000Y-119971531D01*
X160908719Y-120015000D01*
X160913000Y-120058469D01*
X160913000Y-120820477D01*
X160913001Y-120820487D01*
X160913000Y-122460247D01*
X160733203Y-122607803D01*
X160545931Y-122835995D01*
X160406775Y-123096337D01*
X160321084Y-123378824D01*
X160299400Y-123598982D01*
X160299400Y-124051019D01*
X160321084Y-124271177D01*
X160406775Y-124553664D01*
X160545931Y-124814006D01*
X160733203Y-125042197D01*
X160961395Y-125229469D01*
X161221737Y-125368625D01*
X161504224Y-125454316D01*
X161798000Y-125483251D01*
X162091777Y-125454316D01*
X162374264Y-125368625D01*
X162634606Y-125229469D01*
X162862797Y-125042197D01*
X163050069Y-124814006D01*
X163068000Y-124780459D01*
X163085931Y-124814006D01*
X163273203Y-125042197D01*
X163501395Y-125229469D01*
X163761737Y-125368625D01*
X164044224Y-125454316D01*
X164338000Y-125483251D01*
X164631777Y-125454316D01*
X164914264Y-125368625D01*
X165174606Y-125229469D01*
X165402797Y-125042197D01*
X165590069Y-124814006D01*
X165608000Y-124780459D01*
X165625931Y-124814006D01*
X165813203Y-125042197D01*
X166041395Y-125229469D01*
X166301737Y-125368625D01*
X166584224Y-125454316D01*
X166878000Y-125483251D01*
X167171777Y-125454316D01*
X167454264Y-125368625D01*
X167714606Y-125229469D01*
X167942797Y-125042197D01*
X168130069Y-124814006D01*
X168148000Y-124780459D01*
X168165931Y-124814006D01*
X168353203Y-125042197D01*
X168581395Y-125229469D01*
X168841737Y-125368625D01*
X169124224Y-125454316D01*
X169418000Y-125483251D01*
X169711777Y-125454316D01*
X169994264Y-125368625D01*
X170254606Y-125229469D01*
X170482797Y-125042197D01*
X170670069Y-124814006D01*
X170688000Y-124780459D01*
X170705931Y-124814006D01*
X170893203Y-125042197D01*
X171121395Y-125229469D01*
X171381737Y-125368625D01*
X171664224Y-125454316D01*
X171958000Y-125483251D01*
X172251777Y-125454316D01*
X172534264Y-125368625D01*
X172794606Y-125229469D01*
X173022797Y-125042197D01*
X173210069Y-124814006D01*
X173228000Y-124780459D01*
X173245931Y-124814006D01*
X173433203Y-125042197D01*
X173661395Y-125229469D01*
X173921737Y-125368625D01*
X174204224Y-125454316D01*
X174498000Y-125483251D01*
X174791777Y-125454316D01*
X175074264Y-125368625D01*
X175334606Y-125229469D01*
X175562797Y-125042197D01*
X175750069Y-124814006D01*
X175889225Y-124553663D01*
X175974916Y-124271176D01*
X175996600Y-124051018D01*
X175996600Y-123598981D01*
X175974916Y-123378823D01*
X175889225Y-123096336D01*
X175750069Y-122835994D01*
X175562797Y-122607803D01*
X175383000Y-122460248D01*
X175383000Y-121582465D01*
X175387281Y-121538999D01*
X175383000Y-121495533D01*
X175383000Y-121495523D01*
X175370195Y-121365510D01*
X175319589Y-121198687D01*
X175237411Y-121044941D01*
X175210361Y-121011981D01*
X175154532Y-120943953D01*
X175154530Y-120943951D01*
X175126817Y-120910183D01*
X175093050Y-120882471D01*
X173859000Y-119648422D01*
X173859000Y-115809578D01*
X175347049Y-114321530D01*
X175380817Y-114293817D01*
X175491411Y-114159059D01*
X175573589Y-114005313D01*
X175624195Y-113838490D01*
X175637000Y-113708477D01*
X175637000Y-113708469D01*
X175641281Y-113665000D01*
X175637000Y-113621531D01*
X175637000Y-106366465D01*
X175641281Y-106322999D01*
X175637000Y-106279533D01*
X175637000Y-106279523D01*
X175624195Y-106149510D01*
X175573589Y-105982687D01*
X175491411Y-105828941D01*
X175380817Y-105694183D01*
X175347050Y-105666471D01*
X174114534Y-104433956D01*
X174086817Y-104400183D01*
X173952059Y-104289589D01*
X173798313Y-104207411D01*
X173631490Y-104156805D01*
X173593721Y-104153085D01*
X173574031Y-104116248D01*
X173369714Y-103867286D01*
X173237767Y-103759000D01*
X173369714Y-103650714D01*
X173574031Y-103401752D01*
X173593721Y-103364915D01*
X173631490Y-103361195D01*
X173798313Y-103310589D01*
X173952059Y-103228411D01*
X174086817Y-103117817D01*
X174114534Y-103084044D01*
X175093050Y-102105529D01*
X175126817Y-102077817D01*
X175237411Y-101943059D01*
X175319589Y-101789313D01*
X175370195Y-101622490D01*
X175383000Y-101492477D01*
X175383000Y-101492467D01*
X175387281Y-101449001D01*
X175383000Y-101405535D01*
X175383000Y-98468465D01*
X175387281Y-98424999D01*
X175383000Y-98381533D01*
X175383000Y-98381523D01*
X175370195Y-98251510D01*
X175319589Y-98084687D01*
X175237411Y-97930941D01*
X175126817Y-97796183D01*
X175093049Y-97768470D01*
X168051115Y-90726537D01*
X168023398Y-90692764D01*
X167888640Y-90582170D01*
X167734894Y-90499992D01*
X167568071Y-90449386D01*
X167438058Y-90436581D01*
X167438050Y-90436581D01*
X167394581Y-90432300D01*
X167351112Y-90436581D01*
X159733160Y-90436581D01*
X157265296Y-87968718D01*
X157309343Y-87823516D01*
X157340911Y-87503000D01*
X157309343Y-87182484D01*
X157215852Y-86874285D01*
X157064031Y-86590248D01*
X156859714Y-86341286D01*
X156727767Y-86233000D01*
X156859714Y-86124714D01*
X157064031Y-85875752D01*
X157078865Y-85848000D01*
X157690523Y-85848000D01*
X157734000Y-85852282D01*
X157777476Y-85848000D01*
X157777477Y-85848000D01*
X157907490Y-85835195D01*
X158074313Y-85784589D01*
X158208248Y-85713000D01*
X161537572Y-85713000D01*
X161537572Y-89533000D01*
X174250429Y-89533000D01*
X174250429Y-85713000D01*
X161537572Y-85713000D01*
X158208248Y-85713000D01*
X158228059Y-85702411D01*
X158362817Y-85591817D01*
X158473411Y-85457059D01*
X158555589Y-85303313D01*
X158606195Y-85136490D01*
X158623282Y-84963000D01*
X158619000Y-84919523D01*
X158619000Y-82789578D01*
X159882579Y-81526000D01*
X165814531Y-81526000D01*
X165858000Y-81530281D01*
X165901469Y-81526000D01*
X165901477Y-81526000D01*
X166031490Y-81513195D01*
X166198313Y-81462589D01*
X166352059Y-81380411D01*
X166486817Y-81269817D01*
X166514534Y-81236044D01*
X170013049Y-77737530D01*
X170046817Y-77709817D01*
X170157411Y-77575059D01*
X170239589Y-77421313D01*
X170290195Y-77254490D01*
X170303000Y-77124477D01*
X170303000Y-77124467D01*
X170307281Y-77081001D01*
X170303000Y-77037535D01*
X170303000Y-76929753D01*
X170482797Y-76782197D01*
X170670069Y-76554006D01*
X170688000Y-76520459D01*
X170705931Y-76554006D01*
X170893203Y-76782197D01*
X171121395Y-76969469D01*
X171381737Y-77108625D01*
X171664224Y-77194316D01*
X171958000Y-77223251D01*
X172251777Y-77194316D01*
X172534264Y-77108625D01*
X172794606Y-76969469D01*
X173022797Y-76782197D01*
X173210069Y-76554006D01*
X173228000Y-76520459D01*
X173245931Y-76554006D01*
X173433203Y-76782197D01*
X173661395Y-76969469D01*
X173921737Y-77108625D01*
X174204224Y-77194316D01*
X174498000Y-77223251D01*
X174791777Y-77194316D01*
X175074264Y-77108625D01*
X175334606Y-76969469D01*
X175562797Y-76782197D01*
X175750069Y-76554006D01*
X175889225Y-76293663D01*
X175974916Y-76011176D01*
X175996600Y-75791018D01*
X175996600Y-75338981D01*
X175974916Y-75118823D01*
X175889225Y-74836336D01*
X175750069Y-74575994D01*
X175562797Y-74347803D01*
X175334605Y-74160531D01*
X175074263Y-74021375D01*
X174791776Y-73935684D01*
X174498000Y-73906749D01*
X174204223Y-73935684D01*
X173921736Y-74021375D01*
X173661394Y-74160531D01*
X173433203Y-74347803D01*
X173245931Y-74575995D01*
X173228000Y-74609541D01*
X173210069Y-74575994D01*
X173022797Y-74347803D01*
X172794605Y-74160531D01*
X172534263Y-74021375D01*
X172251776Y-73935684D01*
X171958000Y-73906749D01*
X171664223Y-73935684D01*
X171381736Y-74021375D01*
X171121394Y-74160531D01*
X170893203Y-74347803D01*
X170705931Y-74575995D01*
X170688000Y-74609541D01*
X170670069Y-74575994D01*
X170482797Y-74347803D01*
X170254605Y-74160531D01*
X169994263Y-74021375D01*
X169711776Y-73935684D01*
X169418000Y-73906749D01*
X169124223Y-73935684D01*
X168841736Y-74021375D01*
X168581394Y-74160531D01*
X168353203Y-74347803D01*
X168165931Y-74575995D01*
X168148000Y-74609541D01*
X168130069Y-74575994D01*
X167942797Y-74347803D01*
X167714605Y-74160531D01*
X167454263Y-74021375D01*
X167171776Y-73935684D01*
X166878000Y-73906749D01*
X166584223Y-73935684D01*
X166301736Y-74021375D01*
X166041394Y-74160531D01*
X165813203Y-74347803D01*
X165625931Y-74575995D01*
X165608000Y-74609541D01*
X165590069Y-74575994D01*
X165402797Y-74347803D01*
X165174605Y-74160531D01*
X164914263Y-74021375D01*
X164631776Y-73935684D01*
X164338000Y-73906749D01*
X164044223Y-73935684D01*
X163761736Y-74021375D01*
X163501394Y-74160531D01*
X163273203Y-74347803D01*
X163085931Y-74575995D01*
X163068000Y-74609541D01*
X163050069Y-74575994D01*
X162862797Y-74347803D01*
X162634605Y-74160531D01*
X162374263Y-74021375D01*
X162091776Y-73935684D01*
X161798000Y-73906749D01*
X161504223Y-73935684D01*
X161221736Y-74021375D01*
X160961394Y-74160531D01*
X160733203Y-74347803D01*
X160545931Y-74575995D01*
X160528000Y-74609541D01*
X160510069Y-74575994D01*
X160322797Y-74347803D01*
X160094605Y-74160531D01*
X159834263Y-74021375D01*
X159551776Y-73935684D01*
X159258000Y-73906749D01*
X158964223Y-73935684D01*
X158681736Y-74021375D01*
X158421394Y-74160531D01*
X158193203Y-74347803D01*
X158005931Y-74575995D01*
X157988000Y-74609541D01*
X157970069Y-74575994D01*
X157782797Y-74347803D01*
X157554605Y-74160531D01*
X157294263Y-74021375D01*
X157011776Y-73935684D01*
X156718000Y-73906749D01*
X156424223Y-73935684D01*
X156141736Y-74021375D01*
X155881394Y-74160531D01*
X155653203Y-74347803D01*
X155465931Y-74575995D01*
X155326775Y-74836337D01*
X155241084Y-75118824D01*
X155219400Y-75338982D01*
X155219400Y-75791019D01*
X155241084Y-76011177D01*
X155326775Y-76293664D01*
X155465931Y-76554006D01*
X155653203Y-76782197D01*
X155881395Y-76969469D01*
X156141737Y-77108625D01*
X156424224Y-77194316D01*
X156684993Y-77220000D01*
X153713469Y-77220000D01*
X153670000Y-77215719D01*
X153626531Y-77220000D01*
X153626523Y-77220000D01*
X153511306Y-77231348D01*
X153496509Y-77232805D01*
X153445903Y-77248157D01*
X153329687Y-77283411D01*
X153175941Y-77365589D01*
X153175939Y-77365590D01*
X153175940Y-77365590D01*
X153074953Y-77448468D01*
X153074951Y-77448470D01*
X153041183Y-77476183D01*
X153013470Y-77509951D01*
X152058951Y-78464471D01*
X152025184Y-78492183D01*
X151997471Y-78525951D01*
X151997468Y-78525954D01*
X151914590Y-78626941D01*
X151832412Y-78780687D01*
X151781805Y-78947510D01*
X151764719Y-79121000D01*
X151769001Y-79164479D01*
X151769000Y-81085531D01*
X151764719Y-81129000D01*
X151769000Y-81172469D01*
X151769000Y-81172476D01*
X151781805Y-81302489D01*
X151832411Y-81469312D01*
X151914589Y-81623058D01*
X152025183Y-81757817D01*
X152058956Y-81785534D01*
X153291470Y-83018049D01*
X153319183Y-83051817D01*
X153352951Y-83079530D01*
X153352953Y-83079532D01*
X153424452Y-83138210D01*
X153453941Y-83162411D01*
X153607687Y-83244589D01*
X153774510Y-83295195D01*
X153812279Y-83298915D01*
X153831969Y-83335752D01*
X154036286Y-83584714D01*
X154168233Y-83693000D01*
X154036286Y-83801286D01*
X153831969Y-84050248D01*
X153680148Y-84334285D01*
X153586657Y-84642484D01*
X153555089Y-84963000D01*
X153586657Y-85283516D01*
X153680148Y-85591715D01*
X153831969Y-85875752D01*
X154036286Y-86124714D01*
X154168233Y-86233000D01*
X154036286Y-86341286D01*
X153831969Y-86590248D01*
X153680148Y-86874285D01*
X153586657Y-87182484D01*
X153555089Y-87503000D01*
X153586657Y-87823516D01*
X153630704Y-87968718D01*
X153330422Y-88269000D01*
X138415579Y-88269000D01*
X136927534Y-86780956D01*
X136899817Y-86747183D01*
X136765059Y-86636589D01*
X136611313Y-86554411D01*
X136444490Y-86503805D01*
X136314477Y-86491000D01*
X136314469Y-86491000D01*
X136271000Y-86486719D01*
X136227531Y-86491000D01*
X132319579Y-86491000D01*
X132203000Y-86374422D01*
X132203000Y-85831865D01*
X132230752Y-85817031D01*
X132479714Y-85612714D01*
X132583039Y-85486812D01*
X132794660Y-85705300D01*
X133059794Y-85888646D01*
X133355602Y-86016744D01*
X133477566Y-86041124D01*
X133731000Y-85921777D01*
X133731000Y-84328000D01*
X133711000Y-84328000D01*
X133711000Y-84074000D01*
X133731000Y-84074000D01*
X133731000Y-82480223D01*
X133985000Y-82480223D01*
X133985000Y-84074000D01*
X134005000Y-84074000D01*
X134005000Y-84328000D01*
X133985000Y-84328000D01*
X133985000Y-85921777D01*
X134238434Y-86041124D01*
X134360398Y-86016744D01*
X134656206Y-85888646D01*
X134921340Y-85705300D01*
X135132961Y-85486812D01*
X135236286Y-85612714D01*
X135485249Y-85817031D01*
X135769286Y-85968852D01*
X136077485Y-86062343D01*
X136398000Y-86093911D01*
X136718516Y-86062343D01*
X136863718Y-86018297D01*
X137419470Y-86574049D01*
X137447183Y-86607817D01*
X137480951Y-86635530D01*
X137480953Y-86635532D01*
X137533586Y-86678727D01*
X137581941Y-86718411D01*
X137735687Y-86800589D01*
X137902510Y-86851195D01*
X138032523Y-86864000D01*
X138032533Y-86864000D01*
X138075999Y-86868281D01*
X138119465Y-86864000D01*
X140418531Y-86864000D01*
X140462000Y-86868281D01*
X140505469Y-86864000D01*
X140505477Y-86864000D01*
X140635490Y-86851195D01*
X140802313Y-86800589D01*
X140956059Y-86718411D01*
X141090817Y-86607817D01*
X141118534Y-86574044D01*
X148169051Y-79523528D01*
X148202817Y-79495817D01*
X148313411Y-79361059D01*
X148395589Y-79207313D01*
X148446195Y-79040490D01*
X148459000Y-78910477D01*
X148459000Y-78910469D01*
X148463281Y-78867000D01*
X148459000Y-78823531D01*
X148459000Y-76929753D01*
X148638797Y-76782197D01*
X148826069Y-76554006D01*
X148844000Y-76520459D01*
X148861931Y-76554006D01*
X149049203Y-76782197D01*
X149277395Y-76969469D01*
X149537737Y-77108625D01*
X149820224Y-77194316D01*
X150114000Y-77223251D01*
X150407777Y-77194316D01*
X150690264Y-77108625D01*
X150950606Y-76969469D01*
X151178797Y-76782197D01*
X151366069Y-76554006D01*
X151384000Y-76520459D01*
X151401931Y-76554006D01*
X151589203Y-76782197D01*
X151817395Y-76969469D01*
X152077737Y-77108625D01*
X152360224Y-77194316D01*
X152654000Y-77223251D01*
X152947777Y-77194316D01*
X153230264Y-77108625D01*
X153490606Y-76969469D01*
X153718797Y-76782197D01*
X153906069Y-76554006D01*
X154045225Y-76293663D01*
X154130916Y-76011176D01*
X154152600Y-75791018D01*
X154152600Y-75338981D01*
X154130916Y-75118823D01*
X154045225Y-74836336D01*
X153906069Y-74575994D01*
X153718797Y-74347803D01*
X153490605Y-74160531D01*
X153230263Y-74021375D01*
X152947776Y-73935684D01*
X152654000Y-73906749D01*
X152360223Y-73935684D01*
X152077736Y-74021375D01*
X151817394Y-74160531D01*
X151589203Y-74347803D01*
X151401931Y-74575995D01*
X151384000Y-74609541D01*
X151366069Y-74575994D01*
X151178797Y-74347803D01*
X150950605Y-74160531D01*
X150690263Y-74021375D01*
X150407776Y-73935684D01*
X150114000Y-73906749D01*
X149820223Y-73935684D01*
X149537736Y-74021375D01*
X149277394Y-74160531D01*
X149049203Y-74347803D01*
X148861931Y-74575995D01*
X148844000Y-74609541D01*
X148826069Y-74575994D01*
X148638797Y-74347803D01*
X148410605Y-74160531D01*
X148150263Y-74021375D01*
X147867776Y-73935684D01*
X147574000Y-73906749D01*
X147280223Y-73935684D01*
X146997736Y-74021375D01*
X146737394Y-74160531D01*
X146509203Y-74347803D01*
X146321931Y-74575995D01*
X146304000Y-74609541D01*
X146286069Y-74575994D01*
X146098797Y-74347803D01*
X145870605Y-74160531D01*
X145610263Y-74021375D01*
X145327776Y-73935684D01*
X145034000Y-73906749D01*
X144740223Y-73935684D01*
X144457736Y-74021375D01*
X144197394Y-74160531D01*
X143969203Y-74347803D01*
X143781931Y-74575995D01*
X143764000Y-74609541D01*
X143746069Y-74575994D01*
X143558797Y-74347803D01*
X143330605Y-74160531D01*
X143070263Y-74021375D01*
X142787776Y-73935684D01*
X142494000Y-73906749D01*
X142200223Y-73935684D01*
X141917736Y-74021375D01*
X141657394Y-74160531D01*
X141429203Y-74347803D01*
X141241931Y-74575995D01*
X141224000Y-74609541D01*
X141206069Y-74575994D01*
X141018797Y-74347803D01*
X140790605Y-74160531D01*
X140530263Y-74021375D01*
X140247776Y-73935684D01*
X139954000Y-73906749D01*
X139660223Y-73935684D01*
X139377736Y-74021375D01*
X139117394Y-74160531D01*
X138889203Y-74347803D01*
X138701931Y-74575995D01*
X138680576Y-74615947D01*
X138532486Y-74413271D01*
X138316035Y-74214267D01*
X138064919Y-74061314D01*
X137788789Y-73960291D01*
X137773026Y-73957642D01*
X137541000Y-74078783D01*
X137541000Y-75438000D01*
X137561000Y-75438000D01*
X137561000Y-75692000D01*
X137541000Y-75692000D01*
X137541000Y-77051217D01*
X137773026Y-77172358D01*
X137788789Y-77169709D01*
X138064919Y-77068686D01*
X138316035Y-76915733D01*
X138532486Y-76716729D01*
X138680576Y-76514053D01*
X138701931Y-76554006D01*
X138889203Y-76782197D01*
X139117395Y-76969469D01*
X139377737Y-77108625D01*
X139660224Y-77194316D01*
X139954000Y-77223251D01*
X140247777Y-77194316D01*
X140530264Y-77108625D01*
X140790606Y-76969469D01*
X141018797Y-76782197D01*
X141206069Y-76554006D01*
X141224000Y-76520459D01*
X141241931Y-76554006D01*
X141429203Y-76782197D01*
X141657395Y-76969469D01*
X141917737Y-77108625D01*
X142200224Y-77194316D01*
X142494000Y-77223251D01*
X142787777Y-77194316D01*
X143070264Y-77108625D01*
X143330606Y-76969469D01*
X143558797Y-76782197D01*
X143746069Y-76554006D01*
X143764000Y-76520459D01*
X143781931Y-76554006D01*
X143969203Y-76782197D01*
X144149001Y-76929753D01*
X144149000Y-78823523D01*
X144149000Y-79138421D01*
X140279304Y-83008118D01*
X140099714Y-82789286D01*
X139850751Y-82584969D01*
X139566714Y-82433148D01*
X139258515Y-82339657D01*
X138938000Y-82308089D01*
X138617484Y-82339657D01*
X138309285Y-82433148D01*
X138025248Y-82584969D01*
X137776286Y-82789286D01*
X137668000Y-82921234D01*
X137559714Y-82789286D01*
X137310751Y-82584969D01*
X137026714Y-82433148D01*
X136718515Y-82339657D01*
X136398000Y-82308089D01*
X136077484Y-82339657D01*
X135769285Y-82433148D01*
X135485248Y-82584969D01*
X135236286Y-82789286D01*
X135132961Y-82915189D01*
X134921340Y-82696700D01*
X134656206Y-82513354D01*
X134360398Y-82385256D01*
X134238434Y-82360876D01*
X133985000Y-82480223D01*
X133731000Y-82480223D01*
X133477566Y-82360876D01*
X133355602Y-82385256D01*
X133059794Y-82513354D01*
X132794660Y-82696700D01*
X132583039Y-82915188D01*
X132479714Y-82789286D01*
X132230751Y-82584969D01*
X131946714Y-82433148D01*
X131638515Y-82339657D01*
X131318000Y-82308089D01*
X130997484Y-82339657D01*
X130689285Y-82433148D01*
X130405248Y-82584969D01*
X130156286Y-82789286D01*
X129951969Y-83038249D01*
X129803508Y-83316000D01*
X129329469Y-83316000D01*
X129286000Y-83311719D01*
X129242531Y-83316000D01*
X129242523Y-83316000D01*
X129127306Y-83327348D01*
X129112509Y-83328805D01*
X129089609Y-83335752D01*
X128945687Y-83379411D01*
X128822700Y-83445148D01*
X128791941Y-83461589D01*
X128690953Y-83544468D01*
X128690951Y-83544470D01*
X128657183Y-83572183D01*
X128629470Y-83605951D01*
X124626954Y-87608468D01*
X124535405Y-87700017D01*
X124491088Y-87708832D01*
X124193537Y-87832082D01*
X123925748Y-88011013D01*
X123698013Y-88238748D01*
X123519082Y-88506537D01*
X123395832Y-88804088D01*
X123333000Y-89119967D01*
X123333000Y-89442033D01*
X123395832Y-89757912D01*
X123519082Y-90055463D01*
X123698013Y-90323252D01*
X123925748Y-90550987D01*
X124193537Y-90729918D01*
X124491088Y-90853168D01*
X124806967Y-90916000D01*
X125129033Y-90916000D01*
X125444912Y-90853168D01*
X125742463Y-90729918D01*
X126010252Y-90550987D01*
X126237987Y-90323252D01*
X126416918Y-90055463D01*
X126540168Y-89757912D01*
X126603000Y-89442033D01*
X126603000Y-89119967D01*
X126540168Y-88804088D01*
X126416918Y-88506537D01*
X126342867Y-88395711D01*
X129652579Y-85086000D01*
X129803507Y-85086000D01*
X129951969Y-85363752D01*
X130156286Y-85612714D01*
X130405249Y-85817031D01*
X130433001Y-85831865D01*
X130433001Y-86697521D01*
X130428719Y-86741000D01*
X130445805Y-86914490D01*
X130496412Y-87081313D01*
X130578590Y-87235059D01*
X130661468Y-87336046D01*
X130661471Y-87336049D01*
X130689184Y-87369817D01*
X130722951Y-87397529D01*
X131296470Y-87971049D01*
X131324183Y-88004817D01*
X131357951Y-88032530D01*
X131357953Y-88032532D01*
X131458941Y-88115411D01*
X131612686Y-88197589D01*
X131748368Y-88238748D01*
X131779510Y-88248195D01*
X131909523Y-88261000D01*
X131909531Y-88261000D01*
X131953000Y-88265281D01*
X131996469Y-88261000D01*
X133843145Y-88261000D01*
X133752941Y-88396000D01*
X129075465Y-88396000D01*
X129031999Y-88391719D01*
X128988533Y-88396000D01*
X128988523Y-88396000D01*
X128858510Y-88408805D01*
X128691687Y-88459411D01*
X128537941Y-88541589D01*
X128537939Y-88541590D01*
X128537940Y-88541590D01*
X128436953Y-88624468D01*
X128436951Y-88624470D01*
X128403183Y-88652183D01*
X128375470Y-88685951D01*
X125060525Y-92000897D01*
X124875033Y-91964000D01*
X124552967Y-91964000D01*
X124237088Y-92026832D01*
X123939537Y-92150082D01*
X123671748Y-92329013D01*
X123444013Y-92556748D01*
X123265082Y-92824537D01*
X123141832Y-93122088D01*
X123079000Y-93437967D01*
X123079000Y-93760033D01*
X123141832Y-94075912D01*
X123265082Y-94373463D01*
X123444013Y-94641252D01*
X123671748Y-94868987D01*
X123939537Y-95047918D01*
X124237088Y-95171168D01*
X124552967Y-95234000D01*
X124875033Y-95234000D01*
X125190912Y-95171168D01*
X125488463Y-95047918D01*
X125756252Y-94868987D01*
X125983987Y-94641252D01*
X126162918Y-94373463D01*
X126286168Y-94075912D01*
X126349000Y-93760033D01*
X126349000Y-93437967D01*
X126312103Y-93252475D01*
X129398579Y-90166000D01*
X133752941Y-90166000D01*
X133858013Y-90323252D01*
X134085748Y-90550987D01*
X134353537Y-90729918D01*
X134651088Y-90853168D01*
X134966967Y-90916000D01*
X135289033Y-90916000D01*
X135604912Y-90853168D01*
X135902463Y-90729918D01*
X136170252Y-90550987D01*
X136297805Y-90423434D01*
X153607876Y-90423434D01*
X153632256Y-90545398D01*
X153760354Y-90841206D01*
X153943700Y-91106340D01*
X154175248Y-91330610D01*
X154446100Y-91505398D01*
X154745847Y-91623987D01*
X155062970Y-91681819D01*
X155321000Y-91524016D01*
X155321000Y-90170000D01*
X153727223Y-90170000D01*
X153607876Y-90423434D01*
X136297805Y-90423434D01*
X136397987Y-90323252D01*
X136576918Y-90055463D01*
X136700168Y-89757912D01*
X136763000Y-89442033D01*
X136763000Y-89119967D01*
X136762904Y-89119482D01*
X137392470Y-89749049D01*
X137420183Y-89782817D01*
X137453951Y-89810530D01*
X137453953Y-89810532D01*
X137533783Y-89876047D01*
X137554941Y-89893411D01*
X137708687Y-89975589D01*
X137875510Y-90026195D01*
X138005523Y-90039000D01*
X138005531Y-90039000D01*
X138049000Y-90043281D01*
X138092469Y-90039000D01*
X153653531Y-90039000D01*
X153697000Y-90043281D01*
X153740469Y-90039000D01*
X153740477Y-90039000D01*
X153870490Y-90026195D01*
X154037313Y-89975589D01*
X154148797Y-89916000D01*
X155321000Y-89916000D01*
X155321000Y-89896000D01*
X155575000Y-89896000D01*
X155575000Y-89916000D01*
X155595000Y-89916000D01*
X155595000Y-90170000D01*
X155575000Y-90170000D01*
X155575000Y-91524016D01*
X155833030Y-91681819D01*
X156150153Y-91623987D01*
X156449900Y-91505398D01*
X156720752Y-91330610D01*
X156952300Y-91106340D01*
X157135646Y-90841206D01*
X157263744Y-90545398D01*
X157276251Y-90482830D01*
X158710051Y-91916630D01*
X158737764Y-91950398D01*
X158771532Y-91978111D01*
X158771534Y-91978113D01*
X158830898Y-92026832D01*
X158872522Y-92060992D01*
X159026268Y-92143170D01*
X159193091Y-92193776D01*
X159323104Y-92206581D01*
X159323114Y-92206581D01*
X159366580Y-92210862D01*
X159410047Y-92206581D01*
X167028003Y-92206581D01*
X173613001Y-98791580D01*
X173613001Y-99103586D01*
X173462300Y-98885660D01*
X173230752Y-98661390D01*
X172959900Y-98486602D01*
X172660153Y-98368013D01*
X172343030Y-98310181D01*
X172085000Y-98467984D01*
X172085000Y-99822000D01*
X172105000Y-99822000D01*
X172105000Y-100076000D01*
X172085000Y-100076000D01*
X172085000Y-100096000D01*
X171831000Y-100096000D01*
X171831000Y-100076000D01*
X170237223Y-100076000D01*
X170117876Y-100329434D01*
X170142256Y-100451398D01*
X170270354Y-100747206D01*
X170453700Y-101012340D01*
X170672188Y-101223961D01*
X170546286Y-101327286D01*
X170341969Y-101576248D01*
X170327135Y-101604000D01*
X165241078Y-101604000D01*
X165293808Y-101458413D01*
X164338000Y-100502605D01*
X163382192Y-101458413D01*
X163434922Y-101604000D01*
X163177855Y-101604000D01*
X163092058Y-101533588D01*
X162938312Y-101451410D01*
X162771489Y-101400804D01*
X162641476Y-101387999D01*
X162641468Y-101387999D01*
X162597999Y-101383718D01*
X162554530Y-101387999D01*
X158353000Y-101387999D01*
X158353000Y-101311967D01*
X158290168Y-100996088D01*
X158166918Y-100698537D01*
X157987987Y-100430748D01*
X157942834Y-100385595D01*
X162696282Y-100385595D01*
X162740039Y-100704675D01*
X162845205Y-101009088D01*
X162938186Y-101183044D01*
X163202587Y-101278808D01*
X164158395Y-100323000D01*
X164517605Y-100323000D01*
X165473413Y-101278808D01*
X165737814Y-101183044D01*
X165878704Y-100893429D01*
X165960384Y-100581892D01*
X165979718Y-100260405D01*
X165935961Y-99941325D01*
X165830795Y-99636912D01*
X165794264Y-99568566D01*
X170117876Y-99568566D01*
X170237223Y-99822000D01*
X171831000Y-99822000D01*
X171831000Y-98467984D01*
X171572970Y-98310181D01*
X171255847Y-98368013D01*
X170956100Y-98486602D01*
X170685248Y-98661390D01*
X170453700Y-98885660D01*
X170270354Y-99150794D01*
X170142256Y-99446602D01*
X170117876Y-99568566D01*
X165794264Y-99568566D01*
X165737814Y-99462956D01*
X165473413Y-99367192D01*
X164517605Y-100323000D01*
X164158395Y-100323000D01*
X163202587Y-99367192D01*
X162938186Y-99462956D01*
X162797296Y-99752571D01*
X162715616Y-100064108D01*
X162696282Y-100385595D01*
X157942834Y-100385595D01*
X157760252Y-100203013D01*
X157492463Y-100024082D01*
X157194912Y-99900832D01*
X156879033Y-99838000D01*
X156556967Y-99838000D01*
X156241088Y-99900832D01*
X155943537Y-100024082D01*
X155675748Y-100203013D01*
X155448013Y-100430748D01*
X155269082Y-100698537D01*
X155145832Y-100996088D01*
X155083000Y-101311967D01*
X155083000Y-101634033D01*
X155119896Y-101819525D01*
X153074958Y-103864464D01*
X153074953Y-103864468D01*
X153074946Y-103864475D01*
X153041184Y-103892183D01*
X153013476Y-103925945D01*
X152033422Y-104906000D01*
X151185059Y-104906000D01*
X151079987Y-104748748D01*
X150852252Y-104521013D01*
X150852233Y-104521000D01*
X150852252Y-104520987D01*
X151079987Y-104293252D01*
X151258918Y-104025463D01*
X151382168Y-103727912D01*
X151445000Y-103412033D01*
X151445000Y-103089967D01*
X151382168Y-102774088D01*
X151258918Y-102476537D01*
X151079987Y-102208748D01*
X150852252Y-101981013D01*
X150584463Y-101802082D01*
X150286912Y-101678832D01*
X149971033Y-101616000D01*
X149648967Y-101616000D01*
X149333088Y-101678832D01*
X149035537Y-101802082D01*
X148767748Y-101981013D01*
X148540013Y-102208748D01*
X148361082Y-102476537D01*
X148237832Y-102774088D01*
X148175000Y-103089967D01*
X148175000Y-103412033D01*
X148237832Y-103727912D01*
X148361082Y-104025463D01*
X148540013Y-104293252D01*
X148767748Y-104520987D01*
X148767767Y-104521000D01*
X148767748Y-104521013D01*
X148540013Y-104748748D01*
X148361082Y-105016537D01*
X148237832Y-105314088D01*
X148175000Y-105629967D01*
X148175000Y-105952033D01*
X148237832Y-106267912D01*
X148361082Y-106565463D01*
X148540013Y-106833252D01*
X148767748Y-107060987D01*
X148767767Y-107061000D01*
X148767748Y-107061013D01*
X148540013Y-107288748D01*
X148361082Y-107556537D01*
X148237832Y-107854088D01*
X148175000Y-108169967D01*
X148175000Y-108492033D01*
X148211897Y-108677525D01*
X147764955Y-109124467D01*
X147731182Y-109152184D01*
X147620588Y-109286943D01*
X147583970Y-109355451D01*
X147052950Y-109886472D01*
X147019183Y-109914184D01*
X146991470Y-109947952D01*
X146991467Y-109947955D01*
X146908589Y-110048942D01*
X146826411Y-110202688D01*
X146775804Y-110369511D01*
X146758718Y-110543001D01*
X146763000Y-110586480D01*
X146762999Y-112462422D01*
X145429422Y-113796000D01*
X133139465Y-113796000D01*
X133095999Y-113791719D01*
X133052533Y-113796000D01*
X133052523Y-113796000D01*
X132922510Y-113808805D01*
X132755687Y-113859411D01*
X132601941Y-113941589D01*
X132601939Y-113941590D01*
X132601940Y-113941590D01*
X132500953Y-114024468D01*
X132500951Y-114024470D01*
X132467183Y-114052183D01*
X132439470Y-114085951D01*
X132172525Y-114352896D01*
X131987033Y-114316000D01*
X131664967Y-114316000D01*
X131349088Y-114378832D01*
X131051537Y-114502082D01*
X130783748Y-114681013D01*
X130556013Y-114908748D01*
X130377082Y-115176537D01*
X130253832Y-115474088D01*
X130191000Y-115789967D01*
X130191000Y-116112033D01*
X130227897Y-116297525D01*
X129427422Y-117098000D01*
X125491239Y-117098000D01*
X125595987Y-116993252D01*
X125774918Y-116725463D01*
X125898168Y-116427912D01*
X125961000Y-116112033D01*
X125961000Y-115789967D01*
X125898168Y-115474088D01*
X125774918Y-115176537D01*
X125595987Y-114908748D01*
X125368252Y-114681013D01*
X125100463Y-114502082D01*
X124802912Y-114378832D01*
X124487033Y-114316000D01*
X124164967Y-114316000D01*
X123979475Y-114352896D01*
X122805000Y-113178422D01*
X122805000Y-113022413D01*
X123116192Y-113022413D01*
X123211956Y-113286814D01*
X123501571Y-113427704D01*
X123813108Y-113509384D01*
X124134595Y-113528718D01*
X124453675Y-113484961D01*
X124758088Y-113379795D01*
X124932044Y-113286814D01*
X125027808Y-113022413D01*
X124072000Y-112066605D01*
X123116192Y-113022413D01*
X122805000Y-113022413D01*
X122805000Y-112795148D01*
X122936587Y-112842808D01*
X123892395Y-111887000D01*
X124251605Y-111887000D01*
X125207413Y-112842808D01*
X125471814Y-112747044D01*
X125612704Y-112457429D01*
X125694384Y-112145892D01*
X125713718Y-111824405D01*
X125669961Y-111505325D01*
X125564795Y-111200912D01*
X125471814Y-111026956D01*
X125207413Y-110931192D01*
X124251605Y-111887000D01*
X123892395Y-111887000D01*
X122936587Y-110931192D01*
X122805000Y-110978852D01*
X122805000Y-110751587D01*
X123116192Y-110751587D01*
X124072000Y-111707395D01*
X125027808Y-110751587D01*
X124932044Y-110487186D01*
X124642429Y-110346296D01*
X124330892Y-110264616D01*
X124009405Y-110245282D01*
X123690325Y-110289039D01*
X123385912Y-110394205D01*
X123211956Y-110487186D01*
X123116192Y-110751587D01*
X122805000Y-110751587D01*
X122805000Y-106713999D01*
X126417421Y-106713999D01*
X128121470Y-108418049D01*
X128149183Y-108451817D01*
X128182951Y-108479530D01*
X128182953Y-108479532D01*
X128213366Y-108504491D01*
X128283941Y-108562411D01*
X128437687Y-108644589D01*
X128604510Y-108695195D01*
X128734523Y-108708000D01*
X128734533Y-108708000D01*
X128777999Y-108712281D01*
X128821465Y-108708000D01*
X133306531Y-108708000D01*
X133350000Y-108712281D01*
X133393469Y-108708000D01*
X133393477Y-108708000D01*
X133510996Y-108696426D01*
X131918525Y-110288897D01*
X131733033Y-110252000D01*
X131410967Y-110252000D01*
X131095088Y-110314832D01*
X130797537Y-110438082D01*
X130529748Y-110617013D01*
X130302013Y-110844748D01*
X130123082Y-111112537D01*
X129999832Y-111410088D01*
X129937000Y-111725967D01*
X129937000Y-112048033D01*
X129999832Y-112363912D01*
X130123082Y-112661463D01*
X130302013Y-112929252D01*
X130529748Y-113156987D01*
X130797537Y-113335918D01*
X131095088Y-113459168D01*
X131410967Y-113522000D01*
X131733033Y-113522000D01*
X132048912Y-113459168D01*
X132346463Y-113335918D01*
X132614252Y-113156987D01*
X132841987Y-112929252D01*
X133020918Y-112661463D01*
X133144168Y-112363912D01*
X133207000Y-112048033D01*
X133207000Y-112006413D01*
X141334192Y-112006413D01*
X141429956Y-112270814D01*
X141719571Y-112411704D01*
X142031108Y-112493384D01*
X142352595Y-112512718D01*
X142671675Y-112468961D01*
X142976088Y-112363795D01*
X143150044Y-112270814D01*
X143245808Y-112006413D01*
X142290000Y-111050605D01*
X141334192Y-112006413D01*
X133207000Y-112006413D01*
X133207000Y-111725967D01*
X133170103Y-111540475D01*
X133776983Y-110933595D01*
X140648282Y-110933595D01*
X140692039Y-111252675D01*
X140797205Y-111557088D01*
X140890186Y-111731044D01*
X141154587Y-111826808D01*
X142110395Y-110871000D01*
X142469605Y-110871000D01*
X143425413Y-111826808D01*
X143689814Y-111731044D01*
X143830704Y-111441429D01*
X143912384Y-111129892D01*
X143931718Y-110808405D01*
X143887961Y-110489325D01*
X143782795Y-110184912D01*
X143689814Y-110010956D01*
X143425413Y-109915192D01*
X142469605Y-110871000D01*
X142110395Y-110871000D01*
X141154587Y-109915192D01*
X140890186Y-110010956D01*
X140749296Y-110300571D01*
X140667616Y-110612108D01*
X140648282Y-110933595D01*
X133776983Y-110933595D01*
X136510579Y-108200000D01*
X140655000Y-108200000D01*
X140655000Y-108492033D01*
X140717832Y-108807912D01*
X140841082Y-109105463D01*
X141020013Y-109373252D01*
X141247748Y-109600987D01*
X141356600Y-109673720D01*
X141334192Y-109735587D01*
X142290000Y-110691395D01*
X143245808Y-109735587D01*
X143223400Y-109673720D01*
X143332252Y-109600987D01*
X143559987Y-109373252D01*
X143665059Y-109216000D01*
X143974531Y-109216000D01*
X144018000Y-109220281D01*
X144061469Y-109216000D01*
X144061477Y-109216000D01*
X144191490Y-109203195D01*
X144358313Y-109152589D01*
X144512059Y-109070411D01*
X144646817Y-108959817D01*
X144674534Y-108926044D01*
X144994044Y-108606534D01*
X145027817Y-108578817D01*
X145138411Y-108444059D01*
X145220589Y-108290313D01*
X145271195Y-108123490D01*
X145284000Y-107993477D01*
X145284000Y-107993467D01*
X145288281Y-107950001D01*
X145284000Y-107906535D01*
X145284000Y-101135469D01*
X145288281Y-101092000D01*
X145284000Y-101048531D01*
X145284000Y-101048523D01*
X145271195Y-100918510D01*
X145246858Y-100838282D01*
X145220589Y-100751686D01*
X145138411Y-100597941D01*
X145055532Y-100496953D01*
X145055530Y-100496951D01*
X145027817Y-100463183D01*
X144994050Y-100435471D01*
X144420532Y-99861954D01*
X144392817Y-99828183D01*
X144258059Y-99717589D01*
X144104313Y-99635411D01*
X143937490Y-99584805D01*
X143807477Y-99572000D01*
X143807469Y-99572000D01*
X143764000Y-99567719D01*
X143720531Y-99572000D01*
X142109000Y-99572000D01*
X142109000Y-99187587D01*
X163382192Y-99187587D01*
X164338000Y-100143395D01*
X165293808Y-99187587D01*
X165198044Y-98923186D01*
X164908429Y-98782296D01*
X164596892Y-98700616D01*
X164275405Y-98681282D01*
X163956325Y-98725039D01*
X163651912Y-98830205D01*
X163477956Y-98923186D01*
X163382192Y-99187587D01*
X142109000Y-99187587D01*
X142109000Y-98276059D01*
X142266252Y-98170987D01*
X142400826Y-98036413D01*
X150428192Y-98036413D01*
X150523956Y-98300814D01*
X150813571Y-98441704D01*
X151125108Y-98523384D01*
X151446595Y-98542718D01*
X151765675Y-98498961D01*
X152070088Y-98393795D01*
X152244044Y-98300814D01*
X152339808Y-98036413D01*
X151384000Y-97080605D01*
X150428192Y-98036413D01*
X142400826Y-98036413D01*
X142493987Y-97943252D01*
X142672918Y-97675463D01*
X142796168Y-97377912D01*
X142859000Y-97062033D01*
X142859000Y-96963595D01*
X149742282Y-96963595D01*
X149786039Y-97282675D01*
X149891205Y-97587088D01*
X149984186Y-97761044D01*
X150248587Y-97856808D01*
X151204395Y-96901000D01*
X151563605Y-96901000D01*
X152519413Y-97856808D01*
X152783814Y-97761044D01*
X152924704Y-97471429D01*
X153006384Y-97159892D01*
X153025718Y-96838405D01*
X152981961Y-96519325D01*
X152876795Y-96214912D01*
X152783814Y-96040956D01*
X152519413Y-95945192D01*
X151563605Y-96901000D01*
X151204395Y-96901000D01*
X150248587Y-95945192D01*
X149984186Y-96040956D01*
X149843296Y-96330571D01*
X149761616Y-96642108D01*
X149742282Y-96963595D01*
X142859000Y-96963595D01*
X142859000Y-96739967D01*
X142796168Y-96424088D01*
X142672918Y-96126537D01*
X142493987Y-95858748D01*
X142400826Y-95765587D01*
X150428192Y-95765587D01*
X151384000Y-96721395D01*
X152339808Y-95765587D01*
X152244044Y-95501186D01*
X151954429Y-95360296D01*
X151642892Y-95278616D01*
X151321405Y-95259282D01*
X151002325Y-95303039D01*
X150697912Y-95408205D01*
X150523956Y-95501186D01*
X150428192Y-95765587D01*
X142400826Y-95765587D01*
X142266252Y-95631013D01*
X141998463Y-95452082D01*
X141700912Y-95328832D01*
X141385033Y-95266000D01*
X141062967Y-95266000D01*
X140877475Y-95302896D01*
X140682992Y-95108413D01*
X155762192Y-95108413D01*
X155857956Y-95372814D01*
X156147571Y-95513704D01*
X156459108Y-95595384D01*
X156780595Y-95614718D01*
X157099675Y-95570961D01*
X157404088Y-95465795D01*
X157578044Y-95372814D01*
X157673808Y-95108413D01*
X156718000Y-94152605D01*
X155762192Y-95108413D01*
X140682992Y-95108413D01*
X139610174Y-94035595D01*
X155076282Y-94035595D01*
X155120039Y-94354675D01*
X155225205Y-94659088D01*
X155318186Y-94833044D01*
X155582587Y-94928808D01*
X156538395Y-93973000D01*
X156897605Y-93973000D01*
X157853413Y-94928808D01*
X158117814Y-94833044D01*
X158258704Y-94543429D01*
X158340384Y-94231892D01*
X158359718Y-93910405D01*
X158315961Y-93591325D01*
X158210795Y-93286912D01*
X158117814Y-93112956D01*
X157853413Y-93017192D01*
X156897605Y-93973000D01*
X156538395Y-93973000D01*
X155582587Y-93017192D01*
X155318186Y-93112956D01*
X155177296Y-93402571D01*
X155095616Y-93714108D01*
X155076282Y-94035595D01*
X139610174Y-94035595D01*
X138578532Y-93003954D01*
X138550817Y-92970183D01*
X138416059Y-92859589D01*
X138374896Y-92837587D01*
X155762192Y-92837587D01*
X156718000Y-93793395D01*
X157673808Y-92837587D01*
X157578044Y-92573186D01*
X157288429Y-92432296D01*
X156976892Y-92350616D01*
X156655405Y-92331282D01*
X156336325Y-92375039D01*
X156031912Y-92480205D01*
X155857956Y-92573186D01*
X155762192Y-92837587D01*
X138374896Y-92837587D01*
X138262313Y-92777411D01*
X138095490Y-92726805D01*
X137965477Y-92714000D01*
X137965469Y-92714000D01*
X137922000Y-92709719D01*
X137878531Y-92714000D01*
X136249059Y-92714000D01*
X136143987Y-92556748D01*
X135916252Y-92329013D01*
X135648463Y-92150082D01*
X135350912Y-92026832D01*
X135035033Y-91964000D01*
X134712967Y-91964000D01*
X134397088Y-92026832D01*
X134099537Y-92150082D01*
X133831748Y-92329013D01*
X133604013Y-92556748D01*
X133425082Y-92824537D01*
X133301832Y-93122088D01*
X133239000Y-93437967D01*
X133239000Y-93760033D01*
X133301832Y-94075912D01*
X133425082Y-94373463D01*
X133604013Y-94641252D01*
X133831748Y-94868987D01*
X134099537Y-95047918D01*
X134397088Y-95171168D01*
X134712967Y-95234000D01*
X135035033Y-95234000D01*
X135350912Y-95171168D01*
X135648463Y-95047918D01*
X135916252Y-94868987D01*
X136143987Y-94641252D01*
X136249059Y-94484000D01*
X137555422Y-94484000D01*
X139625896Y-96554475D01*
X139589000Y-96739967D01*
X139589000Y-97062033D01*
X139651832Y-97377912D01*
X139775082Y-97675463D01*
X139954013Y-97943252D01*
X140181748Y-98170987D01*
X140339000Y-98276060D01*
X140339001Y-99905521D01*
X140334719Y-99949000D01*
X140351805Y-100122490D01*
X140402412Y-100289313D01*
X140484590Y-100443059D01*
X140567468Y-100544046D01*
X140567471Y-100544049D01*
X140595184Y-100577817D01*
X140628952Y-100605530D01*
X141075466Y-101052044D01*
X141103183Y-101085817D01*
X141237941Y-101196411D01*
X141391687Y-101278589D01*
X141558510Y-101329195D01*
X141688523Y-101342000D01*
X141688533Y-101342000D01*
X141731999Y-101346281D01*
X141775465Y-101342000D01*
X143397422Y-101342000D01*
X143514000Y-101458579D01*
X143514000Y-101655376D01*
X143414482Y-101625188D01*
X143290000Y-101612928D01*
X141290000Y-101612928D01*
X141165518Y-101625188D01*
X141045820Y-101661498D01*
X140935506Y-101720463D01*
X140838815Y-101799815D01*
X140759463Y-101896506D01*
X140700498Y-102006820D01*
X140664188Y-102126518D01*
X140651928Y-102251000D01*
X140651928Y-104251000D01*
X140664188Y-104375482D01*
X140700498Y-104495180D01*
X140759463Y-104605494D01*
X140838815Y-104702185D01*
X140935506Y-104781537D01*
X140981630Y-104806191D01*
X140841082Y-105016537D01*
X140717832Y-105314088D01*
X140697958Y-105414000D01*
X135240578Y-105414000D01*
X135022537Y-105195959D01*
X135022532Y-105195953D01*
X134489000Y-104662422D01*
X134489000Y-102848059D01*
X134646252Y-102742987D01*
X134873987Y-102515252D01*
X135052918Y-102247463D01*
X135176168Y-101949912D01*
X135239000Y-101634033D01*
X135239000Y-101311967D01*
X135176168Y-100996088D01*
X135052918Y-100698537D01*
X134873987Y-100430748D01*
X134646252Y-100203013D01*
X134378463Y-100024082D01*
X134080912Y-99900832D01*
X133765033Y-99838000D01*
X133442967Y-99838000D01*
X133127088Y-99900832D01*
X132829537Y-100024082D01*
X132561748Y-100203013D01*
X132334013Y-100430748D01*
X132155082Y-100698537D01*
X132031832Y-100996088D01*
X131969000Y-101311967D01*
X131969000Y-101634033D01*
X132031832Y-101949912D01*
X132155082Y-102247463D01*
X132334013Y-102515252D01*
X132561748Y-102742987D01*
X132719000Y-102848060D01*
X132719001Y-103521654D01*
X132650429Y-103488296D01*
X132338892Y-103406616D01*
X132017405Y-103387282D01*
X131698325Y-103431039D01*
X131393912Y-103536205D01*
X131219956Y-103629186D01*
X131124192Y-103893587D01*
X132080000Y-104849395D01*
X132094143Y-104835253D01*
X132273748Y-105014858D01*
X132259605Y-105029000D01*
X133215413Y-105984808D01*
X133283551Y-105960129D01*
X133622421Y-106299000D01*
X132983422Y-106938000D01*
X129144579Y-106938000D01*
X128370992Y-106164413D01*
X131124192Y-106164413D01*
X131219956Y-106428814D01*
X131509571Y-106569704D01*
X131821108Y-106651384D01*
X132142595Y-106670718D01*
X132461675Y-106626961D01*
X132766088Y-106521795D01*
X132940044Y-106428814D01*
X133035808Y-106164413D01*
X132080000Y-105208605D01*
X131124192Y-106164413D01*
X128370992Y-106164413D01*
X127440533Y-105233955D01*
X127412816Y-105200182D01*
X127280504Y-105091595D01*
X130438282Y-105091595D01*
X130482039Y-105410675D01*
X130587205Y-105715088D01*
X130680186Y-105889044D01*
X130944587Y-105984808D01*
X131900395Y-105029000D01*
X130944587Y-104073192D01*
X130680186Y-104168956D01*
X130539296Y-104458571D01*
X130457616Y-104770108D01*
X130438282Y-105091595D01*
X127280504Y-105091595D01*
X127278058Y-105089588D01*
X127124312Y-105007410D01*
X126957489Y-104956804D01*
X126827476Y-104943999D01*
X126827468Y-104943999D01*
X126783999Y-104939718D01*
X126740530Y-104943999D01*
X123555000Y-104943999D01*
X123555000Y-104867967D01*
X123492168Y-104552088D01*
X123368918Y-104254537D01*
X123189987Y-103986748D01*
X122962252Y-103759013D01*
X122694463Y-103580082D01*
X122396912Y-103456832D01*
X122081033Y-103394000D01*
X121758967Y-103394000D01*
X121614465Y-103422743D01*
X122347985Y-102689224D01*
X122401748Y-102742987D01*
X122669537Y-102921918D01*
X122967088Y-103045168D01*
X123282967Y-103108000D01*
X123605033Y-103108000D01*
X123920912Y-103045168D01*
X124218463Y-102921918D01*
X124486252Y-102742987D01*
X124713987Y-102515252D01*
X124892918Y-102247463D01*
X125016168Y-101949912D01*
X125079000Y-101634033D01*
X125079000Y-101311967D01*
X125016168Y-100996088D01*
X124892918Y-100698537D01*
X124713987Y-100430748D01*
X124486252Y-100203013D01*
X124218463Y-100024082D01*
X123920912Y-99900832D01*
X123605033Y-99838000D01*
X123282967Y-99838000D01*
X122967088Y-99900832D01*
X122669537Y-100024082D01*
X122401748Y-100203013D01*
X122174013Y-100430748D01*
X122040363Y-100630769D01*
X121972317Y-100651411D01*
X121818571Y-100733589D01*
X121789082Y-100757790D01*
X121717583Y-100816468D01*
X121717581Y-100816470D01*
X121683813Y-100844183D01*
X121656100Y-100877951D01*
X119800956Y-102733096D01*
X119767183Y-102760813D01*
X119656589Y-102895572D01*
X119574411Y-103049318D01*
X119523805Y-103216141D01*
X119511000Y-103346154D01*
X119511000Y-103346161D01*
X119506719Y-103389630D01*
X119511000Y-103433099D01*
X119511001Y-114637521D01*
X119506719Y-114681000D01*
X119523805Y-114854490D01*
X119574412Y-115021313D01*
X119656590Y-115175059D01*
X119739468Y-115276046D01*
X119739469Y-115276047D01*
X119767184Y-115309817D01*
X119800951Y-115337529D01*
X123041470Y-118578049D01*
X123069183Y-118611817D01*
X123102951Y-118639530D01*
X123102953Y-118639532D01*
X123174452Y-118698210D01*
X123203941Y-118722411D01*
X123357687Y-118804589D01*
X123524510Y-118855195D01*
X123654523Y-118868000D01*
X123654533Y-118868000D01*
X123697999Y-118872281D01*
X123741465Y-118868000D01*
X129750531Y-118868000D01*
X129794000Y-118872281D01*
X129837469Y-118868000D01*
X129837477Y-118868000D01*
X129967490Y-118855195D01*
X130134313Y-118804589D01*
X130288059Y-118722411D01*
X130422817Y-118611817D01*
X130450534Y-118578044D01*
X131479475Y-117549103D01*
X131664967Y-117586000D01*
X131987033Y-117586000D01*
X132302912Y-117523168D01*
X132600463Y-117399918D01*
X132868252Y-117220987D01*
X133095987Y-116993252D01*
X133274918Y-116725463D01*
X133398168Y-116427912D01*
X133461000Y-116112033D01*
X133461000Y-115789967D01*
X133424104Y-115604475D01*
X133462579Y-115566000D01*
X145752531Y-115566000D01*
X145796000Y-115570281D01*
X145839469Y-115566000D01*
X145839477Y-115566000D01*
X145969490Y-115553195D01*
X146136313Y-115502589D01*
X146290059Y-115420411D01*
X146424817Y-115309817D01*
X146452534Y-115276044D01*
X148243049Y-113485530D01*
X148276816Y-113457818D01*
X148340849Y-113379795D01*
X148387409Y-113323061D01*
X148387410Y-113323060D01*
X148469588Y-113169314D01*
X148520194Y-113002491D01*
X148532999Y-112872478D01*
X148532999Y-112872468D01*
X148537280Y-112829002D01*
X148532999Y-112785536D01*
X148532999Y-111902755D01*
X148540013Y-111913252D01*
X148767748Y-112140987D01*
X149035537Y-112319918D01*
X149333088Y-112443168D01*
X149648967Y-112506000D01*
X149971033Y-112506000D01*
X150286912Y-112443168D01*
X150584463Y-112319918D01*
X150852252Y-112140987D01*
X151079987Y-111913252D01*
X151258918Y-111645463D01*
X151382168Y-111347912D01*
X151445000Y-111032033D01*
X151445000Y-110709967D01*
X151382168Y-110394088D01*
X151258918Y-110096537D01*
X151079987Y-109828748D01*
X150852252Y-109601013D01*
X150852233Y-109601000D01*
X150852252Y-109600987D01*
X151079987Y-109373252D01*
X151185059Y-109216000D01*
X151779422Y-109216000D01*
X154357896Y-111794475D01*
X154321000Y-111979967D01*
X154321000Y-112302033D01*
X154383832Y-112617912D01*
X154507082Y-112915463D01*
X154686013Y-113183252D01*
X154913748Y-113410987D01*
X155181537Y-113589918D01*
X155479088Y-113713168D01*
X155794967Y-113776000D01*
X156117033Y-113776000D01*
X156432912Y-113713168D01*
X156730463Y-113589918D01*
X156998252Y-113410987D01*
X157225987Y-113183252D01*
X157404918Y-112915463D01*
X157528168Y-112617912D01*
X157591000Y-112302033D01*
X157591000Y-111979967D01*
X157528168Y-111664088D01*
X157404918Y-111366537D01*
X157225987Y-111098748D01*
X156998252Y-110871013D01*
X156730463Y-110692082D01*
X156432912Y-110568832D01*
X156117033Y-110506000D01*
X155794967Y-110506000D01*
X155609475Y-110542896D01*
X152802532Y-107735954D01*
X152774817Y-107702183D01*
X152640059Y-107591589D01*
X152486313Y-107509411D01*
X152319490Y-107458805D01*
X152189477Y-107446000D01*
X152189469Y-107446000D01*
X152146000Y-107441719D01*
X152102531Y-107446000D01*
X151185059Y-107446000D01*
X151079987Y-107288748D01*
X150852252Y-107061013D01*
X150852233Y-107061000D01*
X150852252Y-107060987D01*
X151079987Y-106833252D01*
X151185059Y-106676000D01*
X152356531Y-106676000D01*
X152400000Y-106680281D01*
X152443469Y-106676000D01*
X152443477Y-106676000D01*
X152573490Y-106663195D01*
X152740313Y-106612589D01*
X152894059Y-106530411D01*
X153028817Y-106419817D01*
X153056534Y-106386044D01*
X153289000Y-106153578D01*
X158373001Y-111237580D01*
X158373000Y-124474421D01*
X158129422Y-124718000D01*
X158021385Y-124718000D01*
X158109225Y-124553663D01*
X158194916Y-124271176D01*
X158216600Y-124051018D01*
X158216600Y-123598981D01*
X158194916Y-123378823D01*
X158109225Y-123096336D01*
X157970069Y-122835994D01*
X157782797Y-122607803D01*
X157554605Y-122420531D01*
X157294263Y-122281375D01*
X157011776Y-122195684D01*
X156718000Y-122166749D01*
X156424223Y-122195684D01*
X156141736Y-122281375D01*
X155881394Y-122420531D01*
X155653203Y-122607803D01*
X155465931Y-122835995D01*
X155444576Y-122875947D01*
X155296486Y-122673271D01*
X155080035Y-122474267D01*
X154828919Y-122321314D01*
X154552789Y-122220291D01*
X154537026Y-122217642D01*
X154305000Y-122338783D01*
X154305000Y-123698000D01*
X154325000Y-123698000D01*
X154325000Y-123952000D01*
X154305000Y-123952000D01*
X154305000Y-123972000D01*
X154051000Y-123972000D01*
X154051000Y-123952000D01*
X151765000Y-123952000D01*
X151765000Y-123972000D01*
X151511000Y-123972000D01*
X151511000Y-123952000D01*
X151491000Y-123952000D01*
X151491000Y-123698000D01*
X151511000Y-123698000D01*
X151511000Y-122338783D01*
X151765000Y-122338783D01*
X151765000Y-123698000D01*
X154051000Y-123698000D01*
X154051000Y-122338783D01*
X153818974Y-122217642D01*
X153803211Y-122220291D01*
X153527081Y-122321314D01*
X153275965Y-122474267D01*
X153059514Y-122673271D01*
X152908000Y-122880633D01*
X152756486Y-122673271D01*
X152540035Y-122474267D01*
X152288919Y-122321314D01*
X152012789Y-122220291D01*
X151997026Y-122217642D01*
X151765000Y-122338783D01*
X151511000Y-122338783D01*
X151278974Y-122217642D01*
X151263211Y-122220291D01*
X150987081Y-122321314D01*
X150735965Y-122474267D01*
X150519514Y-122673271D01*
X150371424Y-122875947D01*
X150350069Y-122835994D01*
X150162797Y-122607803D01*
X149934605Y-122420531D01*
X149674263Y-122281375D01*
X149391776Y-122195684D01*
X149098000Y-122166749D01*
X148804223Y-122195684D01*
X148521736Y-122281375D01*
X148261394Y-122420531D01*
X148033203Y-122607803D01*
X147845931Y-122835995D01*
X147828000Y-122869541D01*
X147810069Y-122835994D01*
X147622797Y-122607803D01*
X147394605Y-122420531D01*
X147134263Y-122281375D01*
X146851776Y-122195684D01*
X146558000Y-122166749D01*
X146264223Y-122195684D01*
X145981736Y-122281375D01*
X145721394Y-122420531D01*
X145493203Y-122607803D01*
X145305931Y-122835995D01*
X145288000Y-122869541D01*
X145270069Y-122835994D01*
X145082797Y-122607803D01*
X144854605Y-122420531D01*
X144594263Y-122281375D01*
X144311776Y-122195684D01*
X144018000Y-122166749D01*
X143724223Y-122195684D01*
X143441736Y-122281375D01*
X143181394Y-122420531D01*
X142953203Y-122607803D01*
X142765931Y-122835995D01*
X142748000Y-122869541D01*
X142730069Y-122835994D01*
X142542797Y-122607803D01*
X142314605Y-122420531D01*
X142054263Y-122281375D01*
X141771776Y-122195684D01*
X141478000Y-122166749D01*
X141184223Y-122195684D01*
X140901736Y-122281375D01*
X140641394Y-122420531D01*
X140413203Y-122607803D01*
X140225931Y-122835995D01*
X140208000Y-122869541D01*
X140190069Y-122835994D01*
X140002797Y-122607803D01*
X139774605Y-122420531D01*
X139514263Y-122281375D01*
X139231776Y-122195684D01*
X138938000Y-122166749D01*
X138644223Y-122195684D01*
X138361736Y-122281375D01*
X138101394Y-122420531D01*
X137873203Y-122607803D01*
X137685931Y-122835995D01*
X137546775Y-123096337D01*
X137461084Y-123378824D01*
X137439400Y-123598982D01*
X137439400Y-124051019D01*
X137461084Y-124271177D01*
X137546775Y-124553664D01*
X137685931Y-124814006D01*
X137873203Y-125042197D01*
X138101395Y-125229469D01*
X138361737Y-125368625D01*
X138644224Y-125454316D01*
X138938000Y-125483251D01*
X139231777Y-125454316D01*
X139514264Y-125368625D01*
X139774606Y-125229469D01*
X140002797Y-125042197D01*
X140190069Y-124814006D01*
X140208000Y-124780459D01*
X140225931Y-124814006D01*
X140413203Y-125042197D01*
X140641395Y-125229469D01*
X140901737Y-125368625D01*
X141184224Y-125454316D01*
X141478000Y-125483251D01*
X141771777Y-125454316D01*
X142054264Y-125368625D01*
X142314606Y-125229469D01*
X142542797Y-125042197D01*
X142730069Y-124814006D01*
X142748000Y-124780459D01*
X142765931Y-124814006D01*
X142953203Y-125042197D01*
X143181395Y-125229469D01*
X143441737Y-125368625D01*
X143724224Y-125454316D01*
X144018000Y-125483251D01*
X144311777Y-125454316D01*
X144594264Y-125368625D01*
X144854606Y-125229469D01*
X145082797Y-125042197D01*
X145270069Y-124814006D01*
X145288000Y-124780459D01*
X145305931Y-124814006D01*
X145493203Y-125042197D01*
X145721395Y-125229469D01*
X145981737Y-125368625D01*
X146264224Y-125454316D01*
X146558000Y-125483251D01*
X146851777Y-125454316D01*
X147134264Y-125368625D01*
X147394606Y-125229469D01*
X147622797Y-125042197D01*
X147810069Y-124814006D01*
X147828000Y-124780459D01*
X147845931Y-124814006D01*
X148033203Y-125042197D01*
X148213001Y-125189753D01*
X148213001Y-125297521D01*
X148208719Y-125341000D01*
X148225805Y-125514490D01*
X148268430Y-125655000D01*
X126909707Y-125655000D01*
X127039594Y-125525113D01*
X127331464Y-125088298D01*
X127532508Y-124602935D01*
X127635000Y-124087677D01*
X127635000Y-123562323D01*
X127532508Y-123047065D01*
X127331464Y-122561702D01*
X127039594Y-122124887D01*
X126668113Y-121753406D01*
X126231298Y-121461536D01*
X125745935Y-121260492D01*
X125230677Y-121158000D01*
X124705323Y-121158000D01*
X124190065Y-121260492D01*
X123704702Y-121461536D01*
X123267887Y-121753406D01*
X122896406Y-122124887D01*
X122604536Y-122561702D01*
X122403492Y-123047065D01*
X122301000Y-123562323D01*
X122301000Y-124087677D01*
X122403492Y-124602935D01*
X122604536Y-125088298D01*
X122896406Y-125525113D01*
X123026293Y-125655000D01*
X111708000Y-125655000D01*
X111708000Y-73735000D01*
X124296293Y-73735000D01*
X124166406Y-73864887D01*
M02*
